<?xml version="1.0" encoding="utf-8"?>
<!-- Generator: Adobe Illustrator 26.2.1, SVG Export Plug-In . SVG Version: 6.00 Build 0)  -->
<svg version="1.1" id="Layer_1" xmlns="http://www.w3.org/2000/svg" xmlns:xlink="http://www.w3.org/1999/xlink" x="0px" y="0px"
	 viewBox="0 0 560 420" style="enable-background:new 0 0 560 420;" xml:space="preserve">
<style type="text/css">
	.st0{clip-path:url(#SVGID_00000147900267677745840850000008450968973716465565_);fill:#FFFFFF;}
	.st1{fill:#FFFFFF;}
	.st2{fill:none;stroke:#262626;stroke-width:0.5;stroke-linecap:square;stroke-linejoin:round;stroke-miterlimit:10;}
	.st3{fill:#262626;}
	.st4{font-family:'Helvetica';}
	.st5{font-size:10px;}
	.st6{font-size:11px;}
	.st7{fill:#0072BD;fill-opacity:0.302;}
	.st8{fill:none;stroke:#808080;stroke-width:0.5;stroke-linecap:square;stroke-miterlimit:10;}
	.st9{fill:#808080;}
	.st10{fill:none;stroke:#808080;stroke-width:0.5;stroke-linejoin:round;stroke-miterlimit:10;}
	.st11{fill:#D95319;fill-opacity:0.302;}
	.st12{fill:#EDB120;fill-opacity:0.302;}
	.st13{fill:#7E2F8E;fill-opacity:0.302;}
</style>
<g>
	<g>
		<g>
			<defs>
				<rect id="SVGID_1_" width="560" height="420"/>
			</defs>
			<clipPath id="SVGID_00000039100789868139864800000005784341226989674410_">
				<use xlink:href="#SVGID_1_"  style="overflow:visible;"/>
			</clipPath>
			
				<rect style="clip-path:url(#SVGID_00000039100789868139864800000005784341226989674410_);fill:#FFFFFF;" width="560" height="420"/>
		</g>
	</g>
	<g>
		<rect class="st1" width="560" height="420"/>
		<path class="st1" d="M73,338h434V31.5H73V338z"/>
	</g>
	<g>
		<line class="st2" x1="73" y1="338" x2="507" y2="338"/>
		<line class="st2" x1="73" y1="31.5" x2="507" y2="31.5"/>
		<line class="st2" x1="127.2" y1="338" x2="127.2" y2="333.7"/>
		<line class="st2" x1="235.8" y1="338" x2="235.8" y2="333.7"/>
		<line class="st2" x1="344.2" y1="338" x2="344.2" y2="333.7"/>
		<line class="st2" x1="452.8" y1="338" x2="452.8" y2="333.7"/>
		<line class="st2" x1="127.2" y1="31.5" x2="127.2" y2="35.8"/>
		<line class="st2" x1="235.8" y1="31.5" x2="235.8" y2="35.8"/>
		<line class="st2" x1="344.2" y1="31.5" x2="344.2" y2="35.8"/>
		<line class="st2" x1="452.8" y1="31.5" x2="452.8" y2="35.8"/>
	</g>
	<g transform="translate(127.25,342) rotate(-30)">
		<text transform="matrix(1 0 0 1 -105.9999 9.9998)" class="st3 st4 st5">Uninfected - uninfected</text>
	</g>
	<g transform="translate(235.75,342) rotate(-30)">
		<text transform="matrix(1 0 0 1 -81.9999 9.9999)" class="st3 st4 st5">Infected - infected</text>
	</g>
	<g transform="translate(344.25,342) rotate(-30)">
		<text transform="matrix(1 0 0 1 -75 9.9998)" class="st3 st4 st5">Mix - uninfected</text>
	</g>
	<g transform="translate(452.75,342) rotate(-30)">
		<text transform="matrix(1 0 0 1 -61.9998 9.9999)" class="st3 st4 st5">Mix - infected</text>
	</g>
	<g transform="translate(290.0002,407.0753)">
		<text transform="matrix(1 0 0 1 -97.5 11)" class="st3 st4 st6">Colony Treatment - Ant Infection Status</text>
	</g>
	<g>
		<line class="st2" x1="73" y1="338" x2="73" y2="31.5"/>
		<line class="st2" x1="507" y1="338" x2="507" y2="31.5"/>
		<line class="st2" x1="73" y1="338" x2="77.3" y2="338"/>
		<line class="st2" x1="73" y1="294.2" x2="77.3" y2="294.2"/>
		<line class="st2" x1="73" y1="250.4" x2="77.3" y2="250.4"/>
		<line class="st2" x1="73" y1="206.6" x2="77.3" y2="206.6"/>
		<line class="st2" x1="73" y1="162.9" x2="77.3" y2="162.9"/>
		<line class="st2" x1="73" y1="119.1" x2="77.3" y2="119.1"/>
		<line class="st2" x1="73" y1="75.3" x2="77.3" y2="75.3"/>
		<line class="st2" x1="73" y1="31.5" x2="77.3" y2="31.5"/>
		<line class="st2" x1="507" y1="338" x2="502.7" y2="338"/>
		<line class="st2" x1="507" y1="294.2" x2="502.7" y2="294.2"/>
		<line class="st2" x1="507" y1="250.4" x2="502.7" y2="250.4"/>
		<line class="st2" x1="507" y1="206.6" x2="502.7" y2="206.6"/>
		<line class="st2" x1="507" y1="162.9" x2="502.7" y2="162.9"/>
		<line class="st2" x1="507" y1="119.1" x2="502.7" y2="119.1"/>
		<line class="st2" x1="507" y1="75.3" x2="502.7" y2="75.3"/>
		<line class="st2" x1="507" y1="31.5" x2="502.7" y2="31.5"/>
	</g>
	<g transform="translate(69,338)">
		<text transform="matrix(1 0 0 1 -6 3.5)" class="st3 st4 st5">0</text>
	</g>
	<g transform="translate(69,294.2143)">
		<text transform="matrix(1 0 0 1 -14 3.5)" class="st3 st4 st5">0.1</text>
	</g>
	<g transform="translate(69,250.4286)">
		<text transform="matrix(1 0 0 1 -14 3.5)" class="st3 st4 st5">0.2</text>
	</g>
	<g transform="translate(69,206.6429)">
		<text transform="matrix(1 0 0 1 -14 3.5)" class="st3 st4 st5">0.3</text>
	</g>
	<g transform="translate(69,162.8571)">
		<text transform="matrix(1 0 0 1 -14 3.5)" class="st3 st4 st5">0.4</text>
	</g>
	<g transform="translate(69,119.0714)">
		<text transform="matrix(1 0 0 1 -14 3.5)" class="st3 st4 st5">0.5</text>
	</g>
	<g transform="translate(69,75.2857)">
		<text transform="matrix(1 0 0 1 -14 3.5)" class="st3 st4 st5">0.6</text>
	</g>
	<g transform="translate(69,31.5)">
		<text transform="matrix(1 0 0 1 -14 3.5)" class="st3 st4 st5">0.7</text>
	</g>
	<g transform="translate(52,184.7499) rotate(-90)">
		<text transform="matrix(1 0 0 1 -87.5001 -3)" class="st3 st4 st6">Ratio of time being outside the nest</text>
	</g>
	<g transform="translate(107.1841,302.4522)">
		<circle class="st7" cx="0" cy="0" r="3"/>
		<circle class="st7" cx="7.4" cy="-65.4" r="3"/>
		<circle class="st7" cx="35.2" cy="20.5" r="3"/>
		<circle class="st7" cx="3.3" cy="23.1" r="3"/>
		<circle class="st7" cx="2" cy="-35" r="3"/>
		<circle class="st7" cx="28.5" cy="-14.9" r="3"/>
		<circle class="st7" cx="1" cy="19.1" r="3"/>
		<circle class="st7" cx="4.8" cy="23" r="3"/>
		<circle class="st7" cx="40" cy="-15.5" r="3"/>
		<circle class="st7" cx="30" cy="-37.5" r="3"/>
		<circle class="st7" cx="-7.7" cy="-25.6" r="3"/>
		<circle class="st7" cx="7.3" cy="-61.9" r="3"/>
		<circle class="st7" cx="28.3" cy="-65.2" r="3"/>
		<circle class="st7" cx="24.6" cy="-5.4" r="3"/>
		<circle class="st7" cx="36.7" cy="-61.3" r="3"/>
		<circle class="st7" cx="6.7" cy="-61.1" r="3"/>
		<circle class="st7" cx="38" cy="4.2" r="3"/>
		<circle class="st7" cx="37.5" cy="13.2" r="3"/>
		<circle class="st7" cx="23.9" cy="8.1" r="3"/>
		<circle class="st7" cx="9.6" cy="-82.9" r="3"/>
		<circle class="st7" cx="6.4" cy="4" r="3"/>
		<circle class="st7" cx="3" cy="-27.8" r="3"/>
		<circle class="st7" cx="6.9" cy="-34.7" r="3"/>
		<circle class="st7" cx="11.5" cy="23.9" r="3"/>
		<circle class="st7" cx="9.4" cy="-89.7" r="3"/>
		<circle class="st7" cx="-6.2" cy="19.6" r="3"/>
		<circle class="st7" cx="24.7" cy="-1.8" r="3"/>
		<circle class="st7" cx="-3.8" cy="-35.2" r="3"/>
		<circle class="st7" cx="6" cy="-60.9" r="3"/>
		<circle class="st7" cx="24.8" cy="26.9" r="3"/>
		<circle class="st7" cx="45" cy="-20.7" r="3"/>
		<circle class="st7" cx="35" cy="4.1" r="3"/>
		<circle class="st7" cx="-5.5" cy="-24.6" r="3"/>
		<circle class="st7" cx="29.5" cy="-50.7" r="3"/>
		<circle class="st7" cx="0.6" cy="-41" r="3"/>
		<circle class="st7" cx="-2.1" cy="-18.7" r="3"/>
		<circle class="st7" cx="22.3" cy="-96.4" r="3"/>
		<circle class="st7" cx="22.5" cy="10.8" r="3"/>
		<circle class="st7" cx="12.4" cy="-105.3" r="3"/>
		<circle class="st7" cx="25" cy="-32.3" r="3"/>
		<circle class="st7" cx="28.7" cy="-59.8" r="3"/>
		<circle class="st7" cx="21.6" cy="-88.1" r="3"/>
		<circle class="st7" cx="15.7" cy="18.7" r="3"/>
		<circle class="st7" cx="21.7" cy="10.3" r="3"/>
		<circle class="st7" cx="21" cy="-24.1" r="3"/>
		<circle class="st7" cx="37.4" cy="11.6" r="3"/>
		<circle class="st7" cx="50.5" cy="-6.2" r="3"/>
		<circle class="st7" cx="37.4" cy="17" r="3"/>
		<circle class="st7" cx="3.5" cy="-49.7" r="3"/>
		<circle class="st7" cx="9.7" cy="-1.5" r="3"/>
		<circle class="st7" cx="10.8" cy="-42.8" r="3"/>
		<circle class="st7" cx="13.9" cy="-103.4" r="3"/>
		<circle class="st7" cx="6" cy="-17.9" r="3"/>
		<circle class="st7" cx="19.1" cy="-27.7" r="3"/>
		<circle class="st7" cx="19.8" cy="-12.5" r="3"/>
		<circle class="st7" cx="20.7" cy="-142.2" r="3"/>
		<circle class="st7" cx="30.9" cy="-91.1" r="3"/>
		<circle class="st7" cx="20.8" cy="-230.5" r="3"/>
		<circle class="st7" cx="17" cy="-105.4" r="3"/>
		<circle class="st7" cx="41.1" cy="-31.3" r="3"/>
		<circle class="st7" cx="21.6" cy="-176.7" r="3"/>
		<circle class="st7" cx="20.8" cy="-183.1" r="3"/>
		<circle class="st7" cx="8.7" cy="-64.5" r="3"/>
		<circle class="st7" cx="31" cy="-92.9" r="3"/>
		<circle class="st7" cx="19.9" cy="-13.4" r="3"/>
		<circle class="st7" cx="21.5" cy="-146.8" r="3"/>
		<circle class="st7" cx="20.1" cy="9.3" r="3"/>
		<circle class="st7" cx="19.7" cy="-4.6" r="3"/>
		<circle class="st7" cx="9.1" cy="-20.9" r="3"/>
		<circle class="st7" cx="10" cy="-23" r="3"/>
		<circle class="st7" cx="4.7" cy="-2.4" r="3"/>
		<circle class="st7" cx="27.6" cy="-75.5" r="3"/>
		<circle class="st7" cx="3.8" cy="4.9" r="3"/>
		<circle class="st7" cx="-1.8" cy="6.3" r="3"/>
		<circle class="st7" cx="30.3" cy="25.7" r="3"/>
		<circle class="st7" cx="40.7" cy="25.6" r="3"/>
		<circle class="st7" cx="32.9" cy="23.4" r="3"/>
		<circle class="st7" cx="25.3" cy="25.8" r="3"/>
		<circle class="st7" cx="31.7" cy="1.3" r="3"/>
		<circle class="st7" cx="34.8" cy="33" r="3"/>
	</g>
	<g>
		<path class="st7" d="M98.6,318.8l2,3.9l2.4,3.9l2.6,3.9l2.8,4.9l18.9,0l18.9,0l2.8-4.9l2.6-3.9l2.4-3.9l2-3.9l1.6-3.9l1.2-3.9
			l0.7-3.9l0.3-3.9l0-3.9l-0.3-3.9l-0.5-3.9l-0.7-3.9l-0.9-3.9l-1-3.9l-1.2-3.9l-1.2-3.9l-1.3-3.9l-1.3-3.9l-1.3-3.9l-1.2-3.9
			l-1.2-3.9l-1.1-3.9l-1-3.9l-0.9-3.9l-0.9-3.9l-0.8-3.9l-0.8-3.9l-0.7-3.9l-0.7-3.9l-0.7-3.9l-0.8-3.9l-0.8-3.9l-0.8-3.9l-0.9-3.9
			l-0.9-3.9l-0.9-3.9l-0.9-3.9l-0.8-3.9l-0.8-3.9l-0.7-3.9l-0.5-3.9l-0.4-3.9l-0.3-3.9l-0.2-3.9l-0.1-3.9l-0.1-3.9l-0.1-3.9l0-3.9
			l0-3.9l0-3.9l0-3.9l-0.1-3.9l-0.1-3.9l-0.1-3.9l-0.1-3.9l-0.1-3.9l-0.2-3.9l-0.2-3.9l-0.2-3.9l-0.1-3.9l-0.1-3.9l-0.1-3.9
			l-0.1-3.9l0-3.9l0-3.9l0-3.9l0-4.9l-1,0l-1,0l0,4.9l0,3.9l0,3.9l0,3.9l-0.1,3.9l-0.1,3.9l-0.1,3.9l-0.1,3.9l-0.2,3.9l-0.2,3.9
			l-0.2,3.9l-0.1,3.9l-0.1,3.9l-0.1,3.9l-0.1,3.9l-0.1,3.9l0,3.9l0,3.9l0,3.9l0,3.9l-0.1,3.9l-0.1,3.9l-0.1,3.9l-0.2,3.9l-0.3,3.9
			l-0.4,3.9l-0.5,3.9l-0.7,3.9l-0.8,3.9l-0.8,3.9l-0.9,3.9l-0.9,3.9l-0.9,3.9l-0.9,3.9l-0.8,3.9l-0.8,3.9l-0.8,3.9l-0.7,3.9
			l-0.7,3.9l-0.7,3.9l-0.8,3.9l-0.8,3.9l-0.9,3.9l-0.9,3.9l-1,3.9l-1.1,3.9l-1.2,3.9l-1.2,3.9l-1.3,3.9l-1.3,3.9l-1.3,3.9l-1.2,3.9
			l-1.2,3.9l-1,3.9l-0.9,3.9l-0.7,3.9l-0.5,3.9l-0.3,3.9l0,3.9l0.3,3.9l0.7,3.9l1.2,3.9L98.6,318.8z"/>
	</g>
	<g>
		<path class="st8" d="M127.2,335.5l18.9,0l2.8-4.9l2.6-3.9l2.4-3.9l2-3.9l1.6-3.9l1.2-3.9l0.7-3.9l0.3-3.9l0-3.9l-0.3-3.9l-0.5-3.9
			l-0.7-3.9l-0.9-3.9l-1-3.9l-1.2-3.9l-1.2-3.9l-1.3-3.9l-1.3-3.9l-1.3-3.9l-1.2-3.9l-1.2-3.9l-1.1-3.9l-1-3.9l-0.9-3.9l-0.9-3.9
			l-0.8-3.9l-0.8-3.9l-0.7-3.9l-0.7-3.9l-0.7-3.9l-0.8-3.9l-0.8-3.9l-0.8-3.9l-0.9-3.9l-0.9-3.9l-0.9-3.9l-0.9-3.9l-0.8-3.9
			l-0.8-3.9l-0.7-3.9l-0.5-3.9l-0.4-3.9l-0.3-3.9l-0.2-3.9l-0.1-3.9l-0.1-3.9l-0.1-3.9l0-3.9l0-3.9l0-3.9l0-3.9l-0.1-3.9l-0.1-3.9
			l-0.1-3.9l-0.1-3.9l-0.1-3.9l-0.2-3.9l-0.2-3.9l-0.2-3.9l-0.1-3.9l-0.1-3.9l-0.1-3.9l-0.1-3.9l0-3.9l0-3.9l0-3.9l0-4.9l-1,0l0,0
			l-1,0l0,4.9l0,3.9l0,3.9l0,3.9l-0.1,3.9l-0.1,3.9l-0.1,3.9l-0.1,3.9l-0.2,3.9l-0.2,3.9l-0.2,3.9l-0.1,3.9l-0.1,3.9l-0.1,3.9
			l-0.1,3.9l-0.1,3.9l0,3.9l0,3.9l0,3.9l0,3.9l-0.1,3.9l-0.1,3.9l-0.1,3.9l-0.2,3.9l-0.3,3.9l-0.4,3.9l-0.5,3.9l-0.7,3.9l-0.8,3.9
			l-0.8,3.9l-0.9,3.9l-0.9,3.9l-0.9,3.9l-0.9,3.9l-0.8,3.9l-0.8,3.9l-0.8,3.9l-0.7,3.9l-0.7,3.9l-0.7,3.9l-0.8,3.9l-0.8,3.9
			l-0.9,3.9l-0.9,3.9l-1,3.9l-1.1,3.9l-1.2,3.9l-1.2,3.9l-1.3,3.9l-1.3,3.9l-1.3,3.9l-1.2,3.9l-1.2,3.9l-1,3.9l-0.9,3.9l-0.7,3.9
			l-0.5,3.9l-0.3,3.9l0,3.9l0.3,3.9l0.7,3.9l1.2,3.9l1.6,3.9l2,3.9l2.4,3.9l2.6,3.9l2.8,4.9L127.2,335.5L127.2,335.5"/>
	</g>
	<g>
		<path class="st9" d="M126.2,309.7h2.2v-68.4h-2.2V309.7z"/>
	</g>
	<g>
		<path class="st8" d="M126.2,309.7h2.2v-68.4h-2.2V309.7"/>
		<line class="st10" x1="127.2" y1="335.5" x2="127.2" y2="155.6"/>
	</g>
	<g transform="translate(127.25,281.6745)">
		<circle class="st1" cx="0" cy="0" r="3"/>
	</g>
	<g transform="translate(127.25,281.6745)">
		<path class="st9" d="M0-2.6c1.4,0,2.6,1.2,2.6,2.6l0,0c0,1.4-1.2,2.6-2.6,2.6S-2.6,1.4-2.6,0S-1.4-2.6,0-2.6z M0-3.4
			c-1.9,0-3.4,1.5-3.4,3.4S-1.9,3.4,0,3.4S3.4,1.9,3.4,0l0,0C3.4-1.9,1.9-3.4,0-3.4z"/>
	</g>
	<g transform="translate(239.826,333.7799)">
		<circle class="st11" cx="0" cy="0" r="3"/>
		<circle class="st11" cx="0.5" cy="-74.4" r="3"/>
		<circle class="st11" cx="-0.7" cy="-42.9" r="3"/>
		<circle class="st11" cx="17.3" cy="-7.3" r="3"/>
		<circle class="st11" cx="16.9" cy="-11.2" r="3"/>
		<circle class="st11" cx="4.7" cy="-5.7" r="3"/>
		<circle class="st11" cx="-9.1" cy="-33.1" r="3"/>
		<circle class="st11" cx="-3.3" cy="-115" r="3"/>
		<circle class="st11" cx="13.1" cy="-15" r="3"/>
		<circle class="st11" cx="21.7" cy="-6.3" r="3"/>
		<circle class="st11" cx="17.6" cy="-14.7" r="3"/>
		<circle class="st11" cx="-15.9" cy="-11.9" r="3"/>
		<circle class="st11" cx="13.8" cy="-17.3" r="3"/>
		<circle class="st11" cx="-9.7" cy="-12.9" r="3"/>
		<circle class="st11" cx="7" cy="-15.3" r="3"/>
		<circle class="st11" cx="13.2" cy="-6.2" r="3"/>
		<circle class="st11" cx="-16.6" cy="2.5" r="3"/>
		<circle class="st11" cx="-22.3" cy="-20.9" r="3"/>
		<circle class="st11" cx="21" cy="-15.2" r="3"/>
		<circle class="st11" cx="-23.4" cy="-0.6" r="3"/>
		<circle class="st11" cx="18.5" cy="0.9" r="3"/>
		<circle class="st11" cx="12.2" cy="-12.3" r="3"/>
		<circle class="st11" cx="14.4" cy="-2.5" r="3"/>
		<circle class="st11" cx="-15.7" cy="2.7" r="3"/>
		<circle class="st11" cx="-10.1" cy="-61.4" r="3"/>
		<circle class="st11" cx="-4.2" cy="-70.5" r="3"/>
		<circle class="st11" cx="-7.9" cy="-55.5" r="3"/>
		<circle class="st11" cx="-2.9" cy="-76.3" r="3"/>
		<circle class="st11" cx="-5.2" cy="-81.9" r="3"/>
		<circle class="st11" cx="-6.2" cy="-65.8" r="3"/>
		<circle class="st11" cx="-2.5" cy="-67.2" r="3"/>
		<circle class="st11" cx="-6.6" cy="-63.2" r="3"/>
		<circle class="st11" cx="11" cy="-8.4" r="3"/>
		<circle class="st11" cx="-8.1" cy="-30.5" r="3"/>
		<circle class="st11" cx="-3.8" cy="-102.4" r="3"/>
		<circle class="st11" cx="-24" cy="2.1" r="3"/>
		<circle class="st11" cx="5" cy="-0.8" r="3"/>
		<circle class="st11" cx="-7" cy="-63.8" r="3"/>
		<circle class="st11" cx="-7.3" cy="-66.6" r="3"/>
		<circle class="st11" cx="-28.1" cy="-8.7" r="3"/>
		<circle class="st11" cx="16.9" cy="-0.2" r="3"/>
		<circle class="st11" cx="17.6" cy="-19.4" r="3"/>
		<circle class="st11" cx="11.6" cy="4.2" r="3"/>
		<circle class="st11" cx="-24.6" cy="-17.4" r="3"/>
		<circle class="st11" cx="-25.8" cy="2.3" r="3"/>
		<circle class="st11" cx="2.9" cy="-15" r="3"/>
		<circle class="st11" cx="21.6" cy="-15.8" r="3"/>
		<circle class="st11" cx="-5.5" cy="-47.3" r="3"/>
		<circle class="st11" cx="-4" cy="-26.3" r="3"/>
		<circle class="st11" cx="-0.8" cy="-7.3" r="3"/>
		<circle class="st11" cx="-22" cy="-12.4" r="3"/>
		<circle class="st11" cx="21.1" cy="-15.9" r="3"/>
		<circle class="st11" cx="-22.6" cy="-13.8" r="3"/>
		<circle class="st11" cx="-25.6" cy="-0.6" r="3"/>
		<circle class="st11" cx="27.6" cy="-9.3" r="3"/>
		<circle class="st11" cx="-2.4" cy="-45.5" r="3"/>
		<circle class="st11" cx="-1.3" cy="-15.7" r="3"/>
		<circle class="st11" cx="13.2" cy="-8" r="3"/>
		<circle class="st11" cx="20.2" cy="-12.1" r="3"/>
		<circle class="st11" cx="15.6" cy="-15.7" r="3"/>
		<circle class="st11" cx="13.5" cy="-20.6" r="3"/>
		<circle class="st11" cx="-23.4" cy="-14.8" r="3"/>
		<circle class="st11" cx="-5.6" cy="-94.4" r="3"/>
		<circle class="st11" cx="-17.8" cy="-22.7" r="3"/>
		<circle class="st11" cx="-9.7" cy="1.9" r="3"/>
		<circle class="st11" cx="-22.7" cy="-0.3" r="3"/>
		<circle class="st11" cx="-13.3" cy="2" r="3"/>
		<circle class="st11" cx="-24.8" cy="-7.6" r="3"/>
		<circle class="st11" cx="-6.4" cy="-30.9" r="3"/>
		<circle class="st11" cx="-2.9" cy="2.9" r="3"/>
		<circle class="st11" cx="-1.7" cy="-2.5" r="3"/>
		<circle class="st11" cx="20.6" cy="-1.2" r="3"/>
		<circle class="st11" cx="-33" cy="-1.5" r="3"/>
		<circle class="st11" cx="-9.6" cy="-2.5" r="3"/>
		<circle class="st11" cx="17.4" cy="0" r="3"/>
		<circle class="st11" cx="-26.3" cy="-2.5" r="3"/>
		<circle class="st11" cx="-31.5" cy="-5.4" r="3"/>
		<circle class="st11" cx="-22.2" cy="-14.1" r="3"/>
		<circle class="st11" cx="12.4" cy="-0.7" r="3"/>
		<circle class="st11" cx="-16.3" cy="-22.9" r="3"/>
	</g>
	<g>
		<path class="st11" d="M208.1,333.8l2.6,1.7l3,2.5h22h22l3-2.5l2.6-1.7l2.1-1.7l1.5-1.7l1-1.7l0.5-1.7l0-1.7l-0.4-1.7l-0.8-1.7
			l-1.2-1.7l-1.7-1.7l-2-1.7l-2.4-1.7l-2.6-1.7l-2.6-1.7l-2.6-1.7l-2.4-1.7l-2.2-1.7l-1.9-1.7l-1.6-1.7l-1.3-1.7l-1-1.7l-0.8-1.7
			l-0.6-1.7l-0.4-1.7l-0.3-1.7l-0.2-1.7l-0.1-1.7l0-1.7l0-1.7l0-1.7l0.1-1.7l0.1-1.7l0.2-1.7l0.3-1.7l0.4-1.7l0.5-1.7l0.5-1.7
			l0.5-1.7l0.4-1.7l0.3-1.7l0.1-1.7l-0.1-1.7l-0.2-1.7l-0.4-1.7l-0.5-1.7l-0.5-1.7l-0.5-1.7l-0.5-1.7l-0.5-1.7l-0.5-1.7l-0.4-1.7
			l-0.4-1.7l-0.3-1.7l-0.2-1.7l-0.1-1.7l-0.1-1.7l0-1.7l0-1.7l0-1.7l0-1.7l0-1.7l0-1.7l0-1.7l-0.1-1.7l-0.1-1.7l-0.1-1.7l-0.1-1.7
			l-0.1-1.7l-0.1-1.7l-0.1-2.5l-1.1,0l-1.1,0l-0.1,2.5l-0.1,1.7l-0.1,1.7l-0.1,1.7l-0.1,1.7l-0.1,1.7l-0.1,1.7l0,1.7l0,1.7l0,1.7
			l0,1.7l0,1.7l0,1.7l0,1.7l-0.1,1.7l-0.1,1.7l-0.2,1.7l-0.3,1.7l-0.4,1.7l-0.4,1.7l-0.5,1.7l-0.5,1.7l-0.5,1.7l-0.5,1.7L230,261
			l-0.5,1.7l-0.4,1.7L229,266l-0.1,1.7l0.1,1.7l0.3,1.7l0.4,1.7l0.5,1.7l0.5,1.7l0.5,1.7l0.4,1.7l0.3,1.7l0.2,1.7l0.1,1.7l0.1,1.7
			l0,1.7l0,1.7l0,1.7l-0.1,1.7l-0.2,1.7l-0.3,1.7l-0.4,1.7l-0.6,1.7l-0.8,1.7l-1,1.7l-1.3,1.7l-1.6,1.7l-1.9,1.7L222,309l-2.4,1.7
			l-2.6,1.7l-2.6,1.7l-2.6,1.7l-2.4,1.7l-2,1.7l-1.7,1.7l-1.2,1.7l-0.8,1.7l-0.4,1.7l0,1.7l0.5,1.7l1,1.7l1.5,1.7L208.1,333.8z"/>
	</g>
	<g>
		<path class="st8" d="M235.8,338h22l3-2.5l2.6-1.7l2.1-1.7l1.5-1.7l1-1.7l0.5-1.7l0-1.7l-0.4-1.7l-0.8-1.7l-1.2-1.7l-1.7-1.7
			l-2-1.7l-2.4-1.7l-2.6-1.7l-2.6-1.7l-2.6-1.7l-2.4-1.7l-2.2-1.7l-1.9-1.7l-1.6-1.7l-1.3-1.7l-1-1.7l-0.8-1.7l-0.6-1.7l-0.4-1.7
			l-0.3-1.7l-0.2-1.7l-0.1-1.7l0-1.7l0-1.7l0-1.7l0.1-1.7l0.1-1.7l0.2-1.7l0.3-1.7l0.4-1.7l0.5-1.7l0.5-1.7l0.5-1.7l0.4-1.7l0.3-1.7
			l0.1-1.7l-0.1-1.7l-0.2-1.7l-0.4-1.7l-0.5-1.7l-0.5-1.7l-0.5-1.7l-0.5-1.7l-0.5-1.7l-0.5-1.7l-0.4-1.7l-0.4-1.7l-0.3-1.7l-0.2-1.7
			l-0.1-1.7l-0.1-1.7l0-1.7l0-1.7l0-1.7l0-1.7l0-1.7l0-1.7l0-1.7l-0.1-1.7l-0.1-1.7l-0.1-1.7l-0.1-1.7l-0.1-1.7l-0.1-1.7l-0.1-2.5
			l-1.1,0l0,0l-1.1,0l-0.1,2.5l-0.1,1.7l-0.1,1.7l-0.1,1.7l-0.1,1.7l-0.1,1.7l-0.1,1.7l0,1.7l0,1.7l0,1.7l0,1.7l0,1.7l0,1.7l0,1.7
			l-0.1,1.7l-0.1,1.7l-0.2,1.7l-0.3,1.7l-0.4,1.7l-0.4,1.7l-0.5,1.7l-0.5,1.7l-0.5,1.7l-0.5,1.7L230,261l-0.5,1.7l-0.4,1.7L229,266
			l-0.1,1.7l0.1,1.7l0.3,1.7l0.4,1.7l0.5,1.7l0.5,1.7l0.5,1.7l0.4,1.7l0.3,1.7l0.2,1.7l0.1,1.7l0.1,1.7l0,1.7l0,1.7l0,1.7l-0.1,1.7
			l-0.2,1.7l-0.3,1.7l-0.4,1.7l-0.6,1.7l-0.8,1.7l-1,1.7l-1.3,1.7l-1.6,1.7l-1.9,1.7L222,309l-2.4,1.7l-2.6,1.7l-2.6,1.7l-2.6,1.7
			l-2.4,1.7l-2,1.7l-1.7,1.7l-1.2,1.7l-0.8,1.7l-0.4,1.7l0,1.7l0.5,1.7l1,1.7l1.5,1.7l2.1,1.7l2.6,1.7l3,2.5H235.8L235.8,338"/>
	</g>
	<g>
		<path class="st9" d="M234.7,331.3h2.2v-25.9h-2.2V331.3z"/>
	</g>
	<g>
		<path class="st8" d="M234.7,331.3h2.2v-25.9h-2.2V331.3"/>
		<line class="st10" x1="235.8" y1="338" x2="235.8" y2="267.2"/>
	</g>
	<g transform="translate(235.75,320.392)">
		<circle class="st1" cx="0" cy="0" r="3"/>
	</g>
	<g transform="translate(235.75,320.392)">
		<path class="st9" d="M0-2.6c1.4,0,2.6,1.2,2.6,2.6l0,0c0,1.4-1.2,2.6-2.6,2.6S-2.6,1.4-2.6,0S-1.4-2.6,0-2.6z M0-3.4
			c-1.9,0-3.4,1.5-3.4,3.4S-1.9,3.4,0,3.4S3.4,1.9,3.4,0l0,0C3.4-1.9,1.9-3.4,0-3.4z"/>
	</g>
	<g transform="translate(342.8176,336.6414)">
		<circle class="st12" cx="0" cy="0" r="3"/>
		<circle class="st12" cx="-5.8" cy="-0.2" r="3"/>
		<circle class="st12" cx="-21.5" cy="-1.2" r="3"/>
		<circle class="st12" cx="-4.1" cy="0.4" r="3"/>
		<circle class="st12" cx="23.5" cy="-1.8" r="3"/>
		<circle class="st12" cx="8.2" cy="-0.3" r="3"/>
		<circle class="st12" cx="2.8" cy="-5.6" r="3"/>
		<circle class="st12" cx="-24.7" cy="-11" r="3"/>
		<circle class="st12" cx="-3.8" cy="-17.1" r="3"/>
		<circle class="st12" cx="12.7" cy="-14" r="3"/>
		<circle class="st12" cx="-11.5" cy="-14.3" r="3"/>
		<circle class="st12" cx="2.7" cy="-18.3" r="3"/>
		<circle class="st12" cx="-2.1" cy="-90.5" r="3"/>
		<circle class="st12" cx="-13.8" cy="-17.8" r="3"/>
		<circle class="st12" cx="-6.3" cy="-6.9" r="3"/>
		<circle class="st12" cx="28.1" cy="-8.8" r="3"/>
		<circle class="st12" cx="16.7" cy="-26.5" r="3"/>
		<circle class="st12" cx="-1.4" cy="-55.5" r="3"/>
		<circle class="st12" cx="-2" cy="-60.9" r="3"/>
		<circle class="st12" cx="3" cy="-72.4" r="3"/>
		<circle class="st12" cx="-6.6" cy="-29" r="3"/>
		<circle class="st12" cx="-9.3" cy="-6.9" r="3"/>
		<circle class="st12" cx="22.2" cy="-15" r="3"/>
		<circle class="st12" cx="-1.9" cy="-11.8" r="3"/>
		<circle class="st12" cx="1.7" cy="-94.8" r="3"/>
		<circle class="st12" cx="11.9" cy="-40.8" r="3"/>
		<circle class="st12" cx="-14" cy="-17.8" r="3"/>
		<circle class="st12" cx="10.9" cy="-42.6" r="3"/>
		<circle class="st12" cx="-5" cy="-45.8" r="3"/>
		<circle class="st12" cx="-4.2" cy="-57.2" r="3"/>
		<circle class="st12" cx="4.6" cy="-82.5" r="3"/>
		<circle class="st12" cx="0.7" cy="-149" r="3"/>
		<circle class="st12" cx="6.3" cy="-42.4" r="3"/>
		<circle class="st12" cx="2.1" cy="-33.6" r="3"/>
		<circle class="st12" cx="-12.8" cy="-14.7" r="3"/>
		<circle class="st12" cx="3.6" cy="-0.3" r="3"/>
		<circle class="st12" cx="-9.7" cy="-1.7" r="3"/>
		<circle class="st12" cx="25" cy="-2.1" r="3"/>
		<circle class="st12" cx="21.9" cy="1.2" r="3"/>
		<circle class="st12" cx="-15.2" cy="0.5" r="3"/>
	</g>
	<g>
		<path class="st12" d="M313.1,324.6l-1,2.2l-0.4,2.2l0.3,2.2l1.1,2.2l1.8,2.2l2.4,2.4h26.9h26.9l2.4-2.4l1.8-2.2l1.1-2.2l0.3-2.2
			l-0.4-2.2l-1-2.2l-1.6-2.2l-1.9-2.2l-2.2-2.2l-2.3-2.2l-2.3-2.2l-2.1-2.2l-1.9-2.2l-1.6-2.2l-1.3-2.2l-1-2.2l-0.7-2.2l-0.6-2.2
			l-0.4-2.2l-0.4-2.2l-0.4-2.2l-0.4-2.2l-0.4-2.2l-0.4-2.2l-0.5-2.2l-0.5-2.2l-0.5-2.2l-0.5-2.2l-0.5-2.2l-0.5-2.2l-0.4-2.2
			l-0.4-2.2l-0.3-2.2l-0.2-2.2l-0.1-2.2l-0.1-2.2l0-2.2l0-2.2l0-2.2l0-2.2l-0.1-2.2l-0.2-2.2l-0.3-2.2l-0.3-2.2l-0.4-2.2l-0.5-2.2
			l-0.5-2.2l-0.5-2.2l-0.5-2.2l-0.4-2.2l-0.3-2.2l-0.3-2.2l-0.2-2.2l-0.2-2.2l-0.1-2.2l-0.1-2.2l0-2.2l0-2.2l0-2.2l0.1-2.2l0.1-2.2
			l0.1-2.2l0.2-2.2l0.2-2.2l0.2-2.2l0.2-2.2l0.1-2.2l0.1-2.2l0-2.4l-1.6,0l-1.6,0l0,2.4l0.1,2.2l0.1,2.2l0.2,2.2l0.2,2.2l0.2,2.2
			l0.2,2.2l0.1,2.2l0.1,2.2l0.1,2.2l0,2.2l0,2.2l0,2.2l-0.1,2.2l-0.1,2.2l-0.2,2.2l-0.2,2.2l-0.3,2.2l-0.3,2.2l-0.4,2.2l-0.5,2.2
			l-0.5,2.2l-0.5,2.2l-0.5,2.2l-0.4,2.2l-0.3,2.2l-0.3,2.2l-0.2,2.2l-0.1,2.2l0,2.2l0,2.2l0,2.2l0,2.2l-0.1,2.2l-0.1,2.2l-0.2,2.2
			l-0.3,2.2l-0.4,2.2l-0.4,2.2l-0.5,2.2l-0.5,2.2l-0.5,2.2l-0.5,2.2l-0.5,2.2l-0.5,2.2l-0.4,2.2l-0.4,2.2l-0.4,2.2l-0.4,2.2
			l-0.4,2.2l-0.4,2.2l-0.6,2.2l-0.7,2.2l-1,2.2l-1.3,2.2l-1.6,2.2l-1.9,2.2l-2.1,2.2l-2.3,2.2l-2.3,2.2l-2.2,2.2l-1.9,2.2
			L313.1,324.6z"/>
	</g>
	<g>
		<path class="st8" d="M344.2,337.8h26.9l2.4-2.4l1.8-2.2l1.1-2.2l0.3-2.2l-0.4-2.2l-1-2.2l-1.6-2.2l-1.9-2.2l-2.2-2.2l-2.3-2.2
			l-2.3-2.2l-2.1-2.2l-1.9-2.2l-1.6-2.2l-1.3-2.2l-1-2.2l-0.7-2.2l-0.6-2.2l-0.4-2.2l-0.4-2.2l-0.4-2.2l-0.4-2.2l-0.4-2.2l-0.4-2.2
			l-0.5-2.2l-0.5-2.2l-0.5-2.2l-0.5-2.2l-0.5-2.2l-0.5-2.2l-0.4-2.2l-0.4-2.2l-0.3-2.2l-0.2-2.2l-0.1-2.2l-0.1-2.2l0-2.2l0-2.2
			l0-2.2l0-2.2l-0.1-2.2l-0.2-2.2l-0.3-2.2l-0.3-2.2l-0.4-2.2l-0.5-2.2l-0.5-2.2l-0.5-2.2l-0.5-2.2l-0.4-2.2l-0.3-2.2l-0.3-2.2
			l-0.2-2.2l-0.2-2.2l-0.1-2.2l-0.1-2.2l0-2.2l0-2.2l0-2.2l0.1-2.2l0.1-2.2l0.1-2.2l0.2-2.2l0.2-2.2l0.2-2.2l0.2-2.2l0.1-2.2
			l0.1-2.2l0-2.4l-1.6,0l0,0l-1.6,0l0,2.4l0.1,2.2l0.1,2.2l0.2,2.2l0.2,2.2l0.2,2.2l0.2,2.2l0.1,2.2l0.1,2.2l0.1,2.2l0,2.2l0,2.2
			l0,2.2l-0.1,2.2l-0.1,2.2l-0.2,2.2l-0.2,2.2l-0.3,2.2l-0.3,2.2l-0.4,2.2l-0.5,2.2l-0.5,2.2l-0.5,2.2l-0.5,2.2l-0.4,2.2l-0.3,2.2
			l-0.3,2.2l-0.2,2.2l-0.1,2.2l0,2.2l0,2.2l0,2.2l0,2.2l-0.1,2.2l-0.1,2.2l-0.2,2.2l-0.3,2.2l-0.4,2.2l-0.4,2.2l-0.5,2.2l-0.5,2.2
			l-0.5,2.2l-0.5,2.2l-0.5,2.2l-0.5,2.2l-0.4,2.2l-0.4,2.2l-0.4,2.2l-0.4,2.2l-0.4,2.2l-0.4,2.2l-0.6,2.2l-0.7,2.2l-1,2.2l-1.3,2.2
			l-1.6,2.2l-1.9,2.2l-2.1,2.2l-2.3,2.2l-2.3,2.2l-2.2,2.2l-1.9,2.2l-1.6,2.2l-1,2.2l-0.4,2.2l0.3,2.2l1.1,2.2l1.8,2.2l2.4,2.4
			H344.2L344.2,337.8"/>
	</g>
	<g>
		<path class="st9" d="M343.2,334.7h2.2v-40.6h-2.2V334.7z"/>
	</g>
	<g>
		<path class="st8" d="M343.2,334.7h2.2v-40.6h-2.2V334.7"/>
		<line class="st10" x1="344.2" y1="337.8" x2="344.2" y2="241.9"/>
	</g>
	<g transform="translate(344.25,321.793)">
		<circle class="st1" cx="0" cy="0" r="3"/>
	</g>
	<g transform="translate(344.25,321.793)">
		<path class="st9" d="M0-2.6c1.4,0,2.6,1.2,2.6,2.6l0,0c0,1.4-1.2,2.6-2.6,2.6S-2.6,1.4-2.6,0S-1.4-2.6,0-2.6z M0-3.4
			c-1.9,0-3.4,1.5-3.4,3.4S-1.9,3.4,0,3.4S3.4,1.9,3.4,0l0,0C3.4-1.9,1.9-3.4,0-3.4z"/>
	</g>
	<g transform="translate(478.946,337.909)">
		<circle class="st13" cx="0" cy="0" r="3"/>
		<circle class="st13" cx="-14.5" cy="-0.3" r="3"/>
		<circle class="st13" cx="-50" cy="-5.1" r="3"/>
		<circle class="st13" cx="-34" cy="-1.6" r="3"/>
		<circle class="st13" cx="-26.5" cy="-77.9" r="3"/>
		<circle class="st13" cx="-22.6" cy="-51.7" r="3"/>
		<circle class="st13" cx="-38.4" cy="-3" r="3"/>
		<circle class="st13" cx="-39.1" cy="-1" r="3"/>
		<circle class="st13" cx="-39.8" cy="-21.3" r="3"/>
		<circle class="st13" cx="-45.9" cy="-14" r="3"/>
		<circle class="st13" cx="-26.7" cy="-211.5" r="3"/>
		<circle class="st13" cx="-11.1" cy="-6.2" r="3"/>
		<circle class="st13" cx="3.2" cy="-14.8" r="3"/>
		<circle class="st13" cx="-24.8" cy="-35.4" r="3"/>
		<circle class="st13" cx="-31" cy="-7.7" r="3"/>
		<circle class="st13" cx="-36.7" cy="-13" r="3"/>
		<circle class="st13" cx="-26.3" cy="-118" r="3"/>
		<circle class="st13" cx="-51.9" cy="-22.9" r="3"/>
		<circle class="st13" cx="-23" cy="-71.7" r="3"/>
		<circle class="st13" cx="-37.8" cy="-27.1" r="3"/>
		<circle class="st13" cx="-27.6" cy="-18.6" r="3"/>
		<circle class="st13" cx="-37.7" cy="-22.2" r="3"/>
		<circle class="st13" cx="-12" cy="-32.4" r="3"/>
		<circle class="st13" cx="-11.1" cy="-20.7" r="3"/>
		<circle class="st13" cx="-54.8" cy="-19.2" r="3"/>
		<circle class="st13" cx="-32" cy="-73.5" r="3"/>
		<circle class="st13" cx="-22" cy="-59.2" r="3"/>
		<circle class="st13" cx="-50.2" cy="-15.9" r="3"/>
		<circle class="st13" cx="-23.9" cy="-100" r="3"/>
		<circle class="st13" cx="-31.1" cy="-93.1" r="3"/>
		<circle class="st13" cx="-19.6" cy="-94.5" r="3"/>
		<circle class="st13" cx="-33.6" cy="-99.4" r="3"/>
		<circle class="st13" cx="-44" cy="-8.3" r="3"/>
		<circle class="st13" cx="-7.8" cy="-1.3" r="3"/>
		<circle class="st13" cx="-16.1" cy="-20.7" r="3"/>
		<circle class="st13" cx="-18.2" cy="-82" r="3"/>
		<circle class="st13" cx="-54.2" cy="-2.6" r="3"/>
		<circle class="st13" cx="-14.4" cy="-1.1" r="3"/>
		<circle class="st13" cx="-42.8" cy="-1.1" r="3"/>
		<circle class="st13" cx="-49.8" cy="-1.5" r="3"/>
	</g>
	<g>
		<path class="st13" d="M420.2,328l0.6,2.9l1.5,2.9l2.3,4h28.1h28.1l2.3-4l1.5-2.9l0.6-2.9L485,325l-1.1-2.9l-1.8-2.9l-2.3-2.9
			l-2.7-2.9l-2.9-2.9l-2.9-2.9l-2.8-2.9l-2.5-2.9l-2.2-2.9l-1.8-2.9l-1.3-2.9l-0.9-2.9l-0.5-2.9l-0.2-2.9l0-2.9l0.2-2.9l0.3-2.9
			l0.4-2.9l0.4-2.9l0.4-2.9l0.4-2.9l0.3-2.9l0.2-2.9l0.1-2.9l0-2.9l-0.1-2.9l-0.2-2.9l-0.4-2.9l-0.5-2.9l-0.6-2.9l-0.7-2.9l-0.7-2.9
			l-0.8-2.9l-0.7-2.9l-0.7-2.9l-0.6-2.9l-0.6-2.9l-0.5-2.9l-0.4-2.9l-0.4-2.9l-0.3-2.9l-0.3-2.9l-0.2-2.9l-0.2-2.9l-0.1-2.9
			l-0.1-2.9l0-2.9l0-2.9l0-2.9l0-2.9l0-2.9l0-2.9l0-2.9l0-2.9l0-2.9l0-2.9l0-2.9l0.1-2.9l0.1-2.9l0.1-2.9l0.2-2.9l0.2-2.9l0.2-2.9
			l0.2-2.9l0.2-2.9l0.1-2.9l0.1-4l-1.5,0l-1.5,0l0.1,4l0.1,2.9l0.2,2.9l0.2,2.9l0.2,2.9l0.2,2.9l0.2,2.9l0.1,2.9l0.1,2.9l0.1,2.9
			l0,2.9l0,2.9l0,2.9l0,2.9l0,2.9l0,2.9l0,2.9l0,2.9l0,2.9l0,2.9l0,2.9l-0.1,2.9l-0.1,2.9l-0.2,2.9l-0.2,2.9l-0.3,2.9l-0.3,2.9
			l-0.4,2.9l-0.4,2.9l-0.5,2.9l-0.6,2.9l-0.6,2.9l-0.7,2.9l-0.7,2.9l-0.8,2.9l-0.7,2.9l-0.7,2.9l-0.6,2.9l-0.5,2.9l-0.4,2.9
			l-0.2,2.9l-0.1,2.9l0,2.9l0.1,2.9l0.2,2.9l0.3,2.9l0.4,2.9l0.4,2.9l0.4,2.9l0.4,2.9l0.3,2.9l0.2,2.9l0,2.9l-0.2,2.9l-0.5,2.9
			l-0.9,2.9l-1.3,2.9l-1.8,2.9l-2.2,2.9l-2.5,2.9l-2.8,2.9l-2.9,2.9l-2.9,2.9l-2.7,2.9l-2.3,2.9l-1.8,2.9l-1.1,2.9L420.2,328z"/>
	</g>
	<g>
		<path class="st8" d="M452.8,337.9h28.1l2.3-4l1.5-2.9l0.6-2.9L485,325l-1.1-2.9l-1.8-2.9l-2.3-2.9l-2.7-2.9l-2.9-2.9l-2.9-2.9
			l-2.8-2.9l-2.5-2.9l-2.2-2.9l-1.8-2.9l-1.3-2.9l-0.9-2.9l-0.5-2.9l-0.2-2.9l0-2.9l0.2-2.9l0.3-2.9l0.4-2.9l0.4-2.9l0.4-2.9
			l0.4-2.9l0.3-2.9l0.2-2.9l0.1-2.9l0-2.9l-0.1-2.9l-0.2-2.9l-0.4-2.9l-0.5-2.9l-0.6-2.9l-0.7-2.9l-0.7-2.9l-0.8-2.9l-0.7-2.9
			l-0.7-2.9l-0.6-2.9l-0.6-2.9l-0.5-2.9l-0.4-2.9l-0.4-2.9l-0.3-2.9l-0.3-2.9l-0.2-2.9l-0.2-2.9l-0.1-2.9l-0.1-2.9l0-2.9l0-2.9
			l0-2.9l0-2.9l0-2.9l0-2.9l0-2.9l0-2.9l0-2.9l0-2.9l0-2.9l0.1-2.9l0.1-2.9l0.1-2.9l0.2-2.9l0.2-2.9l0.2-2.9l0.2-2.9l0.2-2.9
			l0.1-2.9l0.1-4l-1.5,0l0,0l-1.5,0l0.1,4l0.1,2.9l0.2,2.9l0.2,2.9l0.2,2.9l0.2,2.9l0.2,2.9l0.1,2.9l0.1,2.9l0.1,2.9l0,2.9l0,2.9
			l0,2.9l0,2.9l0,2.9l0,2.9l0,2.9l0,2.9l0,2.9l0,2.9l0,2.9l-0.1,2.9l-0.1,2.9l-0.2,2.9l-0.2,2.9l-0.3,2.9l-0.3,2.9l-0.4,2.9
			l-0.4,2.9l-0.5,2.9l-0.6,2.9l-0.6,2.9l-0.7,2.9l-0.7,2.9l-0.8,2.9l-0.7,2.9l-0.7,2.9l-0.6,2.9l-0.5,2.9l-0.4,2.9l-0.2,2.9
			l-0.1,2.9l0,2.9l0.1,2.9l0.2,2.9l0.3,2.9l0.4,2.9l0.4,2.9l0.4,2.9l0.4,2.9l0.3,2.9l0.2,2.9l0,2.9l-0.2,2.9l-0.5,2.9l-0.9,2.9
			l-1.3,2.9l-1.8,2.9l-2.2,2.9l-2.5,2.9l-2.8,2.9l-2.9,2.9l-2.9,2.9l-2.7,2.9l-2.3,2.9l-1.8,2.9l-1.1,2.9l-0.3,2.9l0.6,2.9l1.5,2.9
			l2.3,4H452.8L452.8,337.9"/>
	</g>
	<g>
		<path class="st9" d="M451.7,333.8h2.2v-61.4h-2.2V333.8z"/>
	</g>
	<g>
		<path class="st8" d="M451.7,333.8h2.2v-61.4h-2.2V333.8"/>
		<line class="st10" x1="452.8" y1="337.9" x2="452.8" y2="219.9"/>
	</g>
	<g transform="translate(452.75,317.969)">
		<circle class="st1" cx="0" cy="0" r="3"/>
	</g>
	<g transform="translate(452.75,317.969)">
		<path class="st9" d="M0-2.6c1.4,0,2.6,1.2,2.6,2.6l0,0c0,1.4-1.2,2.6-2.6,2.6S-2.6,1.4-2.6,0S-1.4-2.6,0-2.6z M0-3.4
			c-1.9,0-3.4,1.5-3.4,3.4S-1.9,3.4,0,3.4S3.4,1.9,3.4,0l0,0C3.4-1.9,1.9-3.4,0-3.4z"/>
	</g>
</g>
</svg>
