<?xml version="1.0" encoding="utf-8"?>
<!-- Generator: Adobe Illustrator 26.2.1, SVG Export Plug-In . SVG Version: 6.00 Build 0)  -->
<svg version="1.1" id="Layer_1" xmlns="http://www.w3.org/2000/svg" xmlns:xlink="http://www.w3.org/1999/xlink" x="0px" y="0px"
	 viewBox="0 0 560 420" style="enable-background:new 0 0 560 420;" xml:space="preserve">
<style type="text/css">
	.st0{fill:none;stroke:#262626;stroke-width:0.5;stroke-linecap:square;stroke-linejoin:round;stroke-miterlimit:10;}
	.st1{fill:#262626;}
	.st2{font-family:'Helvetica';}
	.st3{font-size:10px;}
	.st4{enable-background:new    ;}
	.st5{fill:#00876C;fill-opacity:0.302;}
	.st6{fill:none;stroke:#808080;stroke-width:0.5;stroke-linecap:square;stroke-miterlimit:10;}
	.st7{fill:#808080;}
	.st8{fill:none;stroke:#808080;stroke-width:0.5;stroke-linejoin:round;stroke-miterlimit:10;}
	.st9{fill:#FFFFFF;}
	.st10{fill:#D95319;fill-opacity:0.302;}
	.st11{fill:#EC7D51;fill-opacity:0.302;}
	.st12{fill:#B1CE7E;fill-opacity:0.302;}
	.st13{fill:#FCD37B;fill-opacity:0.302;}
	.st14{fill:#5C7782;}
	.st15{fill:#D4872F;}
	.st16{fill:#DFBB24;}
	.st17{fill:none;}
	.st18{stroke:#808080;stroke-width:0.75;stroke-miterlimit:10;}
</style>
<g>
	<g>
		<line class="st0" x1="67.5" y1="364.5" x2="501.5" y2="364.5"/>
		<line class="st0" x1="121.7" y1="364.5" x2="121.7" y2="360.2"/>
		<line class="st0" x1="255.3" y1="364.5" x2="255.3" y2="361.1"/>
		<line class="st0" x1="369.7" y1="364.5" x2="369.7" y2="360.2"/>
		<line class="st0" x1="447.3" y1="364.5" x2="447.3" y2="360.2"/>
	</g>
	<g>
		<line class="st0" x1="67.5" y1="364.5" x2="67.5" y2="58"/>
		<line class="st0" x1="67.5" y1="364.5" x2="71.8" y2="364.5"/>
		<line class="st0" x1="67.5" y1="320.7" x2="71.8" y2="320.7"/>
		<line class="st0" x1="67.5" y1="276.9" x2="71.8" y2="276.9"/>
		<line class="st0" x1="67.5" y1="233.1" x2="71.8" y2="233.1"/>
		<line class="st0" x1="67.5" y1="189.4" x2="71.8" y2="189.4"/>
		<line class="st0" x1="67.5" y1="145.6" x2="71.8" y2="145.6"/>
		<line class="st0" x1="67.5" y1="101.8" x2="71.8" y2="101.8"/>
		<line class="st0" x1="67.5" y1="58" x2="71.8" y2="58"/>
		<line class="st0" x1="501.5" y1="364.5" x2="497.2" y2="364.5"/>
		<path class="st0" d="M497.2,58"/>
	</g>
	<g transform="translate(69,338)">
		<text transform="matrix(1 0 0 1 -11.474 22.0123)" class="st1 st2 st3">0</text>
	</g>
	<g transform="translate(69,294.2143)">
		<g>
			<g class="st4">
				<path class="st1" d="M-14.6,25.7c0,1.5-0.4,3.5-2.1,3.5c-1.7,0-2.1-1.8-2.1-3.4c0-1.6,0.5-3.4,2.2-3.4
					C-15,22.3-14.6,24.1-14.6,25.7z M-18.4,25.7c0,1.3,0.3,2.9,1.6,2.9c1.3,0,1.6-1.6,1.6-3c0-1.3-0.3-2.9-1.6-2.9
					C-18.1,22.8-18.4,24.3-18.4,25.7z"/>
				<path class="st1" d="M-13.5,29v-1.3h0.5V29H-13.5z"/>
				<path class="st1" d="M-10.5,29v-5.9c-0.3,0.3-1.1,0.7-1.5,0.8v-0.5c0.4-0.2,1.1-0.5,1.6-1h0.4V29H-10.5z"/>
			</g>
		</g>
	</g>
	<g transform="translate(69,250.4286)">
		<g>
			<g class="st4">
				<path class="st1" d="M-14.6,25.7c0,1.5-0.4,3.5-2.1,3.5c-1.7,0-2.1-1.8-2.1-3.4c0-1.6,0.5-3.4,2.2-3.4
					C-15,22.3-14.6,24.1-14.6,25.7z M-18.4,25.7c0,1.3,0.3,2.9,1.6,2.9c1.3,0,1.6-1.6,1.6-3c0-1.3-0.3-2.9-1.6-2.9
					C-18.1,22.8-18.4,24.3-18.4,25.7z"/>
				<path class="st1" d="M-13.5,29v-1.3h0.5V29H-13.5z"/>
				<path class="st1" d="M-11.9,29L-11.9,29c0-0.8,0.7-1.9,2-2.9c1.1-0.9,1.4-1.2,1.4-2c0-0.7-0.4-1.3-1.3-1.3
					c-0.9,0-1.4,0.4-1.5,1.4h-0.5c0.1-1.1,0.8-1.9,2-1.9c1.3,0,1.9,0.9,1.9,1.8c0,1-0.4,1.4-1.6,2.4c-1,0.8-1.6,1.4-1.8,2.1h3.7
					L-7.8,29H-11.9z"/>
			</g>
		</g>
	</g>
	<g transform="translate(69,206.6429)">
		<g>
			<g class="st4">
				<path class="st1" d="M-14.6,25.7c0,1.5-0.4,3.5-2.1,3.5c-1.7,0-2.1-1.8-2.1-3.4c0-1.6,0.5-3.4,2.2-3.4
					C-15,22.3-14.6,24.1-14.6,25.7z M-18.4,25.7c0,1.3,0.3,2.9,1.6,2.9c1.3,0,1.6-1.6,1.6-3c0-1.3-0.3-2.9-1.6-2.9
					C-18.1,22.8-18.4,24.3-18.4,25.7z"/>
				<path class="st1" d="M-13.5,29v-1.3h0.5V29H-13.5z"/>
				<path class="st1" d="M-11.6,23.9c0.1-0.8,0.7-1.6,1.9-1.6c1.3,0,1.8,0.8,1.8,1.6c0,0.8-0.5,1.2-0.9,1.4v0
					c0.7,0.2,1.2,0.8,1.2,1.7c0,1.1-0.7,2.1-2.2,2.1c-1.3,0-2-0.9-2.1-1.7h0.5c0.2,0.7,0.7,1.3,1.6,1.3c1.1,0,1.6-0.8,1.6-1.6
					c0-1-0.7-1.5-1.7-1.5h-0.4v-0.5h0.3c1,0,1.4-0.4,1.4-1.2c0-0.7-0.5-1.2-1.3-1.2c-0.9,0-1.2,0.5-1.4,1.1H-11.6z"/>
			</g>
		</g>
	</g>
	<g transform="translate(69,162.8571)">
		<g>
			<g class="st4">
				<path class="st1" d="M-14.6,25.7c0,1.5-0.4,3.5-2.1,3.5c-1.7,0-2.1-1.8-2.1-3.4c0-1.6,0.5-3.4,2.2-3.4
					C-15,22.3-14.6,24.1-14.6,25.7z M-18.4,25.7c0,1.3,0.3,2.9,1.6,2.9c1.3,0,1.6-1.6,1.6-3c0-1.3-0.3-2.9-1.6-2.9
					C-18.1,22.8-18.4,24.3-18.4,25.7z"/>
				<path class="st1" d="M-13.5,29v-1.3h0.5V29H-13.5z"/>
				<path class="st1" d="M-8.8,29v-1.8H-12v-0.5l3.2-4.2h0.5v4.3h0.9l-0.1,0.5h-0.8V29H-8.8z M-8.8,24.7c0-0.4,0-1.2,0-1.6
					c-0.3,0.5-1.8,2.6-2.6,3.6h2.6V24.7z"/>
			</g>
		</g>
	</g>
	<g transform="translate(69,119.0714)">
		<g>
			<g class="st4">
				<path class="st1" d="M-14.6,25.7c0,1.5-0.4,3.5-2.1,3.5c-1.7,0-2.1-1.8-2.1-3.4c0-1.6,0.5-3.4,2.2-3.4
					C-15,22.3-14.6,24.1-14.6,25.7z M-18.4,25.7c0,1.3,0.3,2.9,1.6,2.9c1.3,0,1.6-1.6,1.6-3c0-1.3-0.3-2.9-1.6-2.9
					C-18.1,22.8-18.4,24.3-18.4,25.7z"/>
				<path class="st1" d="M-13.5,29v-1.3h0.5V29H-13.5z"/>
				<path class="st1" d="M-7.9,22.9h-2.8c-0.1,0.6-0.3,1.9-0.3,2.3c0.3-0.4,0.8-0.6,1.5-0.6c1.1,0,1.9,0.8,1.9,2.2
					c0,1.3-0.7,2.4-2.1,2.4c-1.1,0-1.9-0.6-2.1-1.7h0.5c0.2,0.7,0.7,1.2,1.6,1.2c1,0,1.6-0.7,1.6-1.9c0-1-0.4-1.7-1.4-1.7
					c-0.9,0-1.3,0.4-1.6,1l-0.5-0.1c0.2-0.9,0.4-2.7,0.5-3.5h3.3L-7.9,22.9z"/>
			</g>
		</g>
	</g>
	<g transform="translate(69,75.2857)">
		<g>
			<g class="st4">
				<path class="st1" d="M-14.6,25.7c0,1.5-0.4,3.5-2.1,3.5c-1.7,0-2.1-1.8-2.1-3.4c0-1.6,0.5-3.4,2.2-3.4
					C-15,22.3-14.6,24.1-14.6,25.7z M-18.4,25.7c0,1.3,0.3,2.9,1.6,2.9c1.3,0,1.6-1.6,1.6-3c0-1.3-0.3-2.9-1.6-2.9
					C-18.1,22.8-18.4,24.3-18.4,25.7z"/>
				<path class="st1" d="M-13.5,29v-1.3h0.5V29H-13.5z"/>
				<path class="st1" d="M-8.3,23.8c-0.2-0.6-0.5-1-1.3-1c-1.3,0-1.7,1.2-1.7,2.9c0.3-0.5,0.8-1.1,1.8-1.1c1.3,0,2,0.9,2,2.2
					c0,1.2-0.7,2.4-2.1,2.4c-1.7,0-2.2-1.5-2.2-3.3c0-1.9,0.6-3.5,2.3-3.5c1.3,0,1.7,0.9,1.8,1.4H-8.3z M-8.1,26.8
					c0-0.8-0.3-1.7-1.5-1.7c-0.9,0-1.6,0.6-1.6,1.8c0,0.5,0.3,1.8,1.6,1.8C-8.5,28.7-8.1,27.7-8.1,26.8z"/>
			</g>
		</g>
	</g>
	<g transform="translate(69,31.5)">
		<g>
			<g class="st4">
				<path class="st1" d="M-14.6,25.7c0,1.5-0.4,3.5-2.1,3.5c-1.7,0-2.1-1.8-2.1-3.4c0-1.6,0.5-3.4,2.2-3.4
					C-15,22.3-14.6,24.1-14.6,25.7z M-18.4,25.7c0,1.3,0.3,2.9,1.6,2.9c1.3,0,1.6-1.6,1.6-3c0-1.3-0.3-2.9-1.6-2.9
					C-18.1,22.8-18.4,24.3-18.4,25.7z"/>
				<path class="st1" d="M-13.5,29v-1.3h0.5V29H-13.5z"/>
				<path class="st1" d="M-8,22.4v0.5c-1.2,1.6-2.3,4.1-2.7,6.1h-0.5c0.3-1.8,1.5-4.5,2.7-6.1h-3.6v-0.5H-8z"/>
			</g>
		</g>
	</g>
	<g transform="translate(52,184.7499) rotate(-90)">
		<g>
			<g class="st4">
				<path class="st1" d="M-135.9-16.2h2.8c1.4,0,2.4,0.8,2.4,2.1c0,1.4-1,2.2-2.5,2.2h-2.1v3.4h-0.6V-16.2z M-135.3-12.4h2.1
					c1.2,0,1.8-0.7,1.8-1.6c0-1-0.7-1.6-1.7-1.6h-2.2V-12.4z"/>
				<path class="st1" d="M-129.4-12.5c0-0.9,0-1.3,0-1.5h0.5c0,0.2,0,0.5,0,1.2c0.3-0.8,1-1.3,1.9-1.4v0.6c-1.1,0.1-1.9,0.9-1.9,2.2
					v2.9h-0.6V-12.5z"/>
				<path class="st1" d="M-121.4-11.2c0,1.5-0.8,2.9-2.5,2.9c-1.5,0-2.4-1.2-2.4-2.9c0-1.6,0.9-2.9,2.5-2.9
					C-122.3-14.1-121.4-13-121.4-11.2z M-125.7-11.2c0,1.3,0.7,2.4,1.9,2.4c1.2,0,1.9-1,1.9-2.4c0-1.3-0.7-2.4-1.9-2.4
					C-125.1-13.6-125.7-12.5-125.7-11.2z"/>
				<path class="st1" d="M-119.4-9.3v3h-0.6v-6.3c0-0.5,0-0.9,0-1.4h0.5c0,0.2,0,0.5,0,1c0.3-0.7,0.9-1.1,1.9-1.1
					c1.3,0,2.2,1.1,2.2,2.7c0,2-1.1,3-2.4,3C-118.7-8.3-119.2-8.8-119.4-9.3z M-115.9-11.3c0-1.3-0.6-2.2-1.7-2.2
					c-1.3,0-1.9,0.8-1.9,2.3c0,1.5,0.4,2.4,1.8,2.4C-116.5-8.9-115.9-9.8-115.9-11.3z"/>
				<path class="st1" d="M-109.5-11.2c0,1.5-0.8,2.9-2.5,2.9c-1.5,0-2.4-1.2-2.4-2.9c0-1.6,0.9-2.9,2.5-2.9
					C-110.4-14.1-109.5-13-109.5-11.2z M-113.8-11.2c0,1.3,0.7,2.4,1.9,2.4c1.2,0,1.9-1,1.9-2.4c0-1.3-0.7-2.4-1.9-2.4
					C-113.2-13.6-113.8-12.5-113.8-11.2z"/>
				<path class="st1" d="M-108.1-12.5c0-0.9,0-1.3,0-1.5h0.5c0,0.2,0,0.5,0,1.2c0.3-0.8,1-1.3,1.9-1.4v0.6c-1.1,0.1-1.9,0.9-1.9,2.2
					v2.9h-0.5V-12.5z"/>
				<path class="st1" d="M-105.4-14h1v-1.7h0.5v1.7h1.3v0.5h-1.3v3.6c0,0.6,0.1,1,0.7,1c0.2,0,0.4,0,0.6-0.1v0.5
					c-0.2,0.1-0.5,0.1-0.7,0.1c-0.7,0-1.1-0.4-1.1-1.2v-3.8h-1V-14z"/>
				<path class="st1" d="M-101.4-16.6h0.5v1.1h-0.5V-16.6z M-101.4-14h0.5v5.5h-0.5V-14z"/>
				<path class="st1" d="M-94.6-11.2c0,1.5-0.8,2.9-2.5,2.9c-1.5,0-2.4-1.2-2.4-2.9c0-1.6,0.9-2.9,2.5-2.9
					C-95.5-14.1-94.6-13-94.6-11.2z M-98.9-11.2c0,1.3,0.7,2.4,1.9,2.4c1.2,0,1.9-1,1.9-2.4c0-1.3-0.7-2.4-1.9-2.4
					C-98.3-13.6-98.9-12.5-98.9-11.2z"/>
				<path class="st1" d="M-93.2-12.6c0-0.5,0-0.9,0-1.4h0.5c0,0.2,0,0.9,0,1c0.2-0.6,0.7-1.2,1.8-1.2c1,0,1.8,0.5,1.8,2.1v3.6h-0.5
					V-12c0-1-0.4-1.6-1.4-1.6c-1.3,0-1.8,1.1-1.8,2.3v2.8h-0.5V-12.6z"/>
				<path class="st1" d="M-79.9-11.2c0,1.5-0.8,2.9-2.5,2.9c-1.5,0-2.4-1.2-2.4-2.9c0-1.6,0.9-2.9,2.5-2.9
					C-80.8-14.1-79.9-13-79.9-11.2z M-84.2-11.2c0,1.3,0.7,2.4,1.9,2.4c1.2,0,1.9-1,1.9-2.4c0-1.3-0.7-2.4-1.9-2.4
					C-83.6-13.6-84.2-12.5-84.2-11.2z"/>
				<path class="st1" d="M-78.4-8.5v-5h-0.9V-14h0.9v-0.8c0-0.9,0.3-1.9,1.5-1.9c0.2,0,0.4,0,0.5,0.1v0.5c-0.2,0-0.4-0.1-0.6-0.1
					c-0.6,0-0.9,0.5-0.9,1.4v0.8h1.2v0.5h-1.2v5H-78.4z"/>
				<path class="st1" d="M-72.7-8.5v-5h-0.9V-14h0.9v-0.8c0-0.9,0.3-1.9,1.5-1.9c0.2,0,0.4,0,0.5,0.1v0.5c-0.2,0-0.4-0.1-0.6-0.1
					c-0.6,0-0.9,0.5-0.9,1.4v0.8h1.2v0.5h-1.2v5H-72.7z"/>
				<path class="st1" d="M-70.1-12.5c0-0.9,0-1.3,0-1.5h0.5c0,0.2,0,0.5,0,1.2c0.3-0.8,1-1.3,1.9-1.4v0.6c-1.1,0.1-1.9,0.9-1.9,2.2
					v2.9h-0.5V-12.5z"/>
				<path class="st1" d="M-62.8-9.5c0,0.5,0,0.9,0.1,1h-0.5c0-0.1-0.1-0.4-0.1-0.8c-0.2,0.4-0.7,1-1.8,1c-1.3,0-1.8-0.8-1.8-1.7
					c0-1.2,0.9-1.8,2.6-1.8c0.5,0,0.8,0,1,0v-0.6c0-0.5-0.2-1.3-1.4-1.3c-1.1,0-1.3,0.6-1.4,1h-0.6c0.1-0.6,0.4-1.5,2-1.5
					c1.3,0,2,0.5,2,1.7V-9.5z M-63.3-11.3c-0.2,0-0.7,0-1.1,0c-1.2,0-2,0.3-2,1.3c0,0.7,0.5,1.2,1.3,1.2c1.6,0,1.8-1,1.8-2.2V-11.3z
					"/>
				<path class="st1" d="M-61-12.6c0-0.5,0-1,0-1.4h0.5c0,0.2,0,0.7,0,1c0.2-0.5,0.7-1.1,1.7-1.1c0.8,0,1.4,0.4,1.6,1.1
					c0.3-0.6,0.8-1.1,1.8-1.1c0.8,0,1.7,0.5,1.7,2v3.6h-0.5V-12c0-0.7-0.3-1.5-1.3-1.5c-1.1,0-1.6,0.9-1.6,1.9v3.2h-0.5V-12
					c0-0.8-0.2-1.6-1.3-1.6c-1.1,0-1.6,0.9-1.6,2.1v3H-61V-12.6z"/>
				<path class="st1" d="M-51.7-11.2c0,1.4,0.7,2.3,1.8,2.3c1,0,1.4-0.6,1.6-1h0.6C-48-9.2-48.6-8.3-50-8.3c-1.7,0-2.3-1.4-2.3-2.8
					c0-1.6,0.8-2.9,2.4-2.9c1.7,0,2.2,1.5,2.2,2.5c0,0.2,0,0.3,0,0.5H-51.7z M-48.2-11.6c0-1.1-0.6-1.9-1.7-1.9
					c-1.1,0-1.7,0.8-1.8,1.9H-48.2z"/>
				<path class="st1" d="M-46.3-10c0.2,0.7,0.7,1.1,1.6,1.1c1,0,1.4-0.5,1.4-1.1c0-0.6-0.3-0.9-1.5-1.2c-1.4-0.3-1.8-0.8-1.8-1.5
					c0-0.8,0.6-1.5,1.8-1.5s1.8,0.8,1.9,1.5h-0.6c-0.1-0.5-0.5-1-1.4-1c-1,0-1.2,0.5-1.2,0.9c0,0.5,0.3,0.8,1.4,1
					c1.6,0.4,1.9,0.9,1.9,1.7c0,1-0.8,1.6-2,1.6c-1.3,0-2-0.7-2.1-1.7H-46.3z"/>
				<path class="st1" d="M-34.8-9.5c0,0.5,0,0.9,0.1,1h-0.5c0-0.1-0.1-0.4-0.1-0.8c-0.2,0.4-0.7,1-1.8,1c-1.3,0-1.8-0.8-1.8-1.7
					c0-1.2,0.9-1.8,2.6-1.8c0.5,0,0.8,0,1,0v-0.6c0-0.5-0.2-1.3-1.4-1.3c-1.1,0-1.3,0.6-1.4,1h-0.6c0.1-0.6,0.4-1.5,2-1.5
					c1.3,0,2,0.5,2,1.7V-9.5z M-35.3-11.3c-0.2,0-0.7,0-1.1,0c-1.2,0-2,0.3-2,1.3c0,0.7,0.5,1.2,1.3,1.2c1.6,0,1.8-1,1.8-2.2V-11.3z
					"/>
				<path class="st1" d="M-33-12.6c0-0.5,0-0.9,0-1.4h0.5c0,0.2,0,0.9,0,1c0.2-0.6,0.7-1.2,1.8-1.2c1,0,1.8,0.5,1.8,2.1v3.6h-0.5
					V-12c0-1-0.4-1.6-1.4-1.6c-1.3,0-1.8,1.1-1.8,2.3v2.8H-33V-12.6z"/>
				<path class="st1" d="M-27.8-14h1v-1.7h0.6v1.7h1.3v0.5h-1.3v3.6c0,0.6,0.1,1,0.7,1c0.2,0,0.4,0,0.6-0.1v0.5
					c-0.2,0.1-0.5,0.1-0.7,0.1c-0.7,0-1.1-0.4-1.1-1.2v-3.8h-1V-14z"/>
				<path class="st1" d="M-20.9-16.6h0.5v3.5c0.3-0.6,0.8-1.1,1.9-1.1c1.3,0,2.3,1.1,2.3,2.8c0,1.7-0.9,3-2.4,3
					c-0.9,0-1.5-0.4-1.7-1c0,0.4,0,0.7,0,0.9h-0.5c0-0.6,0-1.3,0-1.9V-16.6z M-16.8-11.3c0-1.4-0.7-2.3-1.7-2.3
					c-1.4,0-1.9,0.9-1.9,2.4c0,1.3,0.4,2.4,1.8,2.4C-17.5-8.9-16.8-9.8-16.8-11.3z"/>
				<path class="st1" d="M-14.8-11.2c0,1.4,0.7,2.3,1.8,2.3c1,0,1.4-0.6,1.6-1h0.6c-0.2,0.7-0.8,1.6-2.2,1.6c-1.7,0-2.3-1.4-2.3-2.8
					c0-1.6,0.8-2.9,2.4-2.9c1.7,0,2.2,1.5,2.2,2.5c0,0.2,0,0.3,0,0.5H-14.8z M-11.3-11.6c0-1.1-0.6-1.9-1.7-1.9
					c-1.1,0-1.7,0.8-1.8,1.9H-11.3z"/>
				<path class="st1" d="M-9.4-16.6h0.5v1.1h-0.5V-16.6z M-9.4-14h0.5v5.5h-0.5V-14z"/>
				<path class="st1" d="M-7-12.6c0-0.5,0-0.9,0-1.4h0.5c0,0.2,0,0.9,0,1c0.2-0.6,0.7-1.2,1.8-1.2c1,0,1.8,0.5,1.8,2.1v3.6h-0.6V-12
					c0-1-0.4-1.6-1.4-1.6c-1.3,0-1.8,1.1-1.8,2.3v2.8H-7V-12.6z"/>
				<path class="st1" d="M3.2-8.8c0,1.8-0.8,2.7-2.4,2.7c-1.4,0-2-0.8-2.2-1.6h0.6C-0.5-7,0.1-6.7,0.9-6.7c1.4,0,1.8-0.9,1.8-2.3
					v-0.6C2.4-8.9,1.9-8.5,0.9-8.5c-1.3,0-2.3-1-2.3-2.8c0-1.8,1.1-2.9,2.4-2.9c1.1,0,1.6,0.5,1.8,1c0-0.3,0-0.7,0-0.8h0.5
					c0,0.2,0,1.1,0,1.6V-8.8z M-0.8-11.2C-0.8-9.9-0.1-9,0.9-9c1.4,0,1.8-0.9,1.8-2.3c0-1.5-0.4-2.3-1.8-2.3
					C-0.3-13.6-0.8-12.5-0.8-11.2z"/>
				<path class="st1" d="M12.4-11.2c0,1.5-0.8,2.9-2.5,2.9c-1.5,0-2.4-1.2-2.4-2.9c0-1.6,0.9-2.9,2.5-2.9
					C11.4-14.1,12.4-13,12.4-11.2z M8-11.2c0,1.3,0.7,2.4,1.9,2.4c1.2,0,1.9-1,1.9-2.4c0-1.3-0.7-2.4-1.9-2.4
					C8.6-13.6,8-12.5,8-11.2z"/>
				<path class="st1" d="M17.8-10.1c0,0.5,0,1.4,0,1.6h-0.5c0-0.1,0-0.5,0-1c-0.2,0.6-0.8,1.1-1.8,1.1c-0.8,0-1.8-0.3-1.8-2V-14h0.5
					v3.5c0,0.8,0.3,1.6,1.3,1.6c1.2,0,1.7-0.7,1.7-2.3V-14h0.5V-10.1z"/>
				<path class="st1" d="M18.8-14h1v-1.7h0.6v1.7h1.3v0.5h-1.3v3.6c0,0.6,0.1,1,0.7,1c0.2,0,0.4,0,0.6-0.1v0.5
					c-0.2,0.1-0.5,0.1-0.7,0.1c-0.7,0-1.1-0.4-1.1-1.2v-3.8h-1V-14z"/>
				<path class="st1" d="M22.8-10c0.2,0.7,0.7,1.1,1.6,1.1c1,0,1.4-0.5,1.4-1.1c0-0.6-0.3-0.9-1.5-1.2c-1.4-0.3-1.8-0.8-1.8-1.5
					c0-0.8,0.6-1.5,1.8-1.5s1.8,0.8,1.9,1.5h-0.5c-0.1-0.5-0.5-1-1.4-1c-1,0-1.2,0.5-1.2,0.9c0,0.5,0.3,0.8,1.4,1
					c1.6,0.4,1.9,0.9,1.9,1.7c0,1-0.8,1.6-2,1.6c-1.3,0-2-0.7-2.1-1.7H22.8z"/>
				<path class="st1" d="M27.7-16.6h0.5v1.1h-0.5V-16.6z M27.7-14h0.5v5.5h-0.5V-14z"/>
				<path class="st1" d="M34.3-16.6v6.5c0,0.5,0,1,0,1.6h-0.5c0-0.1,0-0.6,0-0.9c-0.3,0.7-0.9,1.1-1.8,1.1c-1.4,0-2.3-1.2-2.3-2.8
					c0-1.7,0.9-2.9,2.4-2.9c1.1,0,1.5,0.5,1.7,0.8v-3.3H34.3z M30.2-11.2c0,1.5,0.8,2.3,1.7,2.3c1.5,0,1.8-1,1.8-2.5
					c0-1.4-0.3-2.2-1.7-2.2C30.9-13.6,30.2-12.7,30.2-11.2z"/>
				<path class="st1" d="M36.2-11.2c0,1.4,0.7,2.3,1.8,2.3c1,0,1.4-0.6,1.6-1h0.6c-0.2,0.7-0.8,1.6-2.2,1.6c-1.7,0-2.3-1.4-2.3-2.8
					c0-1.6,0.8-2.9,2.4-2.9c1.7,0,2.2,1.5,2.2,2.5c0,0.2,0,0.3,0,0.5H36.2z M39.7-11.6c0-1.1-0.6-1.9-1.7-1.9
					c-1.1,0-1.7,0.8-1.8,1.9H39.7z"/>
				<path class="st1" d="M43.7-14h1v-1.7h0.6v1.7h1.3v0.5h-1.3v3.6c0,0.6,0.1,1,0.7,1c0.2,0,0.4,0,0.6-0.1v0.5
					c-0.2,0.1-0.5,0.1-0.7,0.1c-0.7,0-1.1-0.4-1.1-1.2v-3.8h-1V-14z"/>
				<path class="st1" d="M48.2-16.6v3.5c0.3-0.6,0.8-1.1,1.8-1.1c0.8,0,1.9,0.4,1.9,2.1v3.5h-0.6v-3.4c0-1.1-0.5-1.7-1.4-1.7
					c-1.1,0-1.7,0.7-1.7,2v3.1h-0.5v-8.1H48.2z"/>
				<path class="st1" d="M53.8-11.2c0,1.4,0.7,2.3,1.8,2.3c1,0,1.4-0.6,1.6-1h0.6c-0.2,0.7-0.8,1.6-2.2,1.6c-1.7,0-2.3-1.4-2.3-2.8
					c0-1.6,0.8-2.9,2.4-2.9c1.7,0,2.2,1.5,2.2,2.5c0,0.2,0,0.3,0,0.5H53.8z M57.3-11.6c0-1.1-0.6-1.9-1.7-1.9
					c-1.1,0-1.7,0.8-1.8,1.9H57.3z"/>
				<path class="st1" d="M62.1-12.6c0-0.5,0-0.9,0-1.4h0.5c0,0.2,0,0.9,0,1c0.2-0.6,0.7-1.2,1.8-1.2c1,0,1.8,0.5,1.8,2.1v3.6h-0.6
					V-12c0-1-0.4-1.6-1.4-1.6c-1.3,0-1.8,1.1-1.8,2.3v2.8h-0.5V-12.6z"/>
				<path class="st1" d="M68.2-11.2c0,1.4,0.7,2.3,1.8,2.3c1,0,1.4-0.6,1.6-1h0.6c-0.2,0.7-0.8,1.6-2.2,1.6c-1.7,0-2.3-1.4-2.3-2.8
					c0-1.6,0.8-2.9,2.4-2.9c1.7,0,2.2,1.5,2.2,2.5c0,0.2,0,0.3,0,0.5H68.2z M71.7-11.6c0-1.1-0.6-1.9-1.7-1.9
					c-1.1,0-1.7,0.8-1.8,1.9H71.7z"/>
				<path class="st1" d="M73.6-10c0.2,0.7,0.7,1.1,1.6,1.1c1,0,1.4-0.5,1.4-1.1c0-0.6-0.3-0.9-1.5-1.2c-1.4-0.3-1.8-0.8-1.8-1.5
					c0-0.8,0.6-1.5,1.8-1.5s1.8,0.8,1.9,1.5h-0.5c-0.1-0.5-0.5-1-1.4-1c-1,0-1.2,0.5-1.2,0.9c0,0.5,0.3,0.8,1.4,1
					c1.6,0.4,1.9,0.9,1.9,1.7c0,1-0.8,1.6-2,1.6c-1.3,0-2-0.7-2.1-1.7H73.6z"/>
				<path class="st1" d="M77.7-14h1v-1.7h0.6v1.7h1.3v0.5h-1.3v3.6c0,0.6,0.1,1,0.7,1c0.2,0,0.4,0,0.6-0.1v0.5
					c-0.2,0.1-0.5,0.1-0.7,0.1c-0.7,0-1.1-0.4-1.1-1.2v-3.8h-1V-14z"/>
			</g>
		</g>
	</g>
	<g transform="translate(107.1841,302.4522)">
		<circle class="st5" cx="-5.5" cy="25.5" r="3"/>
		<circle class="st5" cx="1.9" cy="-39.9" r="3"/>
		<circle class="st5" cx="29.7" cy="46" r="3"/>
		<circle class="st5" cx="-2.2" cy="48.6" r="3"/>
		<circle class="st5" cx="-3.5" cy="-9.5" r="3"/>
		<circle class="st5" cx="23" cy="10.6" r="3"/>
		<circle class="st5" cx="-4.5" cy="44.6" r="3"/>
		<circle class="st5" cx="-0.7" cy="48.5" r="3"/>
		<circle class="st5" cx="34.5" cy="10" r="3"/>
		<circle class="st5" cx="24.5" cy="-12" r="3"/>
		<circle class="st5" cx="-13.2" cy="-0.1" r="3"/>
		<circle class="st5" cx="1.8" cy="-36.4" r="3"/>
		<circle class="st5" cx="22.8" cy="-39.7" r="3"/>
		<circle class="st5" cx="19.1" cy="20.1" r="3"/>
		<circle class="st5" cx="31.2" cy="-35.8" r="3"/>
		<circle class="st5" cx="1.2" cy="-35.6" r="3"/>
		<circle class="st5" cx="32.5" cy="29.7" r="3"/>
		<circle class="st5" cx="32" cy="38.7" r="3"/>
		<circle class="st5" cx="18.4" cy="33.6" r="3"/>
		<circle class="st5" cx="4.1" cy="-57.4" r="3"/>
		<circle class="st5" cx="0.9" cy="29.5" r="3"/>
		<circle class="st5" cx="-2.5" cy="-2.3" r="3"/>
		<circle class="st5" cx="1.4" cy="-9.2" r="3"/>
		<circle class="st5" cx="6" cy="49.4" r="3"/>
		<circle class="st5" cx="3.9" cy="-64.2" r="3"/>
		<circle class="st5" cx="-11.7" cy="45.1" r="3"/>
		<circle class="st5" cx="19.2" cy="23.7" r="3"/>
		<circle class="st5" cx="-9.3" cy="-9.7" r="3"/>
		<circle class="st5" cx="0.5" cy="-35.4" r="3"/>
		<circle class="st5" cx="19.3" cy="52.4" r="3"/>
		<circle class="st5" cx="39.5" cy="4.8" r="3"/>
		<circle class="st5" cx="29.5" cy="29.6" r="3"/>
		<circle class="st5" cx="-11" cy="0.9" r="3"/>
		<circle class="st5" cx="24" cy="-25.2" r="3"/>
		<circle class="st5" cx="-4.9" cy="-15.5" r="3"/>
		<circle class="st5" cx="-7.6" cy="6.8" r="3"/>
		<circle class="st5" cx="16.8" cy="-70.9" r="3"/>
		<circle class="st5" cx="17" cy="36.3" r="3"/>
		<circle class="st5" cx="6.9" cy="-79.8" r="3"/>
		<circle class="st5" cx="19.5" cy="-6.8" r="3"/>
		<circle class="st5" cx="23.2" cy="-34.3" r="3"/>
		<circle class="st5" cx="16.1" cy="-62.6" r="3"/>
		<circle class="st5" cx="10.2" cy="44.2" r="3"/>
		<circle class="st5" cx="16.2" cy="35.8" r="3"/>
		<circle class="st5" cx="15.5" cy="1.4" r="3"/>
		<circle class="st5" cx="31.9" cy="37.1" r="3"/>
		<circle class="st5" cx="45" cy="19.3" r="3"/>
		<circle class="st5" cx="31.9" cy="42.5" r="3"/>
		<circle class="st5" cx="-2" cy="-24.2" r="3"/>
		<circle class="st5" cx="4.2" cy="24" r="3"/>
		<circle class="st5" cx="5.3" cy="-17.3" r="3"/>
		<circle class="st5" cx="8.4" cy="-77.9" r="3"/>
		<circle class="st5" cx="0.5" cy="7.6" r="3"/>
		<circle class="st5" cx="13.6" cy="-2.2" r="3"/>
		<circle class="st5" cx="14.3" cy="13" r="3"/>
		<circle class="st5" cx="15.2" cy="-116.7" r="3"/>
		<circle class="st5" cx="25.4" cy="-65.6" r="3"/>
		<circle class="st5" cx="15.3" cy="-205" r="3"/>
		<circle class="st5" cx="11.5" cy="-79.9" r="3"/>
		<circle class="st5" cx="35.6" cy="-5.8" r="3"/>
		<circle class="st5" cx="16.1" cy="-151.2" r="3"/>
		<circle class="st5" cx="15.3" cy="-157.6" r="3"/>
		<circle class="st5" cx="3.2" cy="-39" r="3"/>
		<circle class="st5" cx="25.5" cy="-67.4" r="3"/>
		<circle class="st5" cx="14.4" cy="12.1" r="3"/>
		<circle class="st5" cx="16" cy="-121.3" r="3"/>
		<circle class="st5" cx="14.6" cy="34.8" r="3"/>
		<circle class="st5" cx="14.2" cy="20.9" r="3"/>
		<circle class="st5" cx="3.6" cy="4.6" r="3"/>
		<circle class="st5" cx="4.5" cy="2.5" r="3"/>
		<circle class="st5" cx="-0.8" cy="23.1" r="3"/>
		<circle class="st5" cx="22.1" cy="-50" r="3"/>
		<circle class="st5" cx="-1.7" cy="30.4" r="3"/>
		<circle class="st5" cx="-7.3" cy="31.8" r="3"/>
		<circle class="st5" cx="24.8" cy="51.2" r="3"/>
		<circle class="st5" cx="35.2" cy="51.1" r="3"/>
		<circle class="st5" cx="27.4" cy="48.9" r="3"/>
		<circle class="st5" cx="19.8" cy="51.3" r="3"/>
		<circle class="st5" cx="26.2" cy="26.8" r="3"/>
		<circle class="st5" cx="29.3" cy="58.5" r="3"/>
	</g>
	<g>
		<path class="st5" d="M93.1,344.3l2,3.9l2.4,3.9l2.6,3.9l2.8,4.9h18.9h18.9l2.8-4.9l2.6-3.9l2.4-3.9l2-3.9l1.6-3.9l1.2-3.9l0.7-3.9
			l0.3-3.9v-3.9l-0.3-3.9l-0.5-3.9l-0.7-3.9l-0.9-3.9l-1-3.9l-1.2-3.9l-1.2-3.9l-1.3-3.9l-1.3-3.9l-1.3-3.9l-1.2-3.9l-1.2-3.9
			l-1.1-3.9l-1-3.9l-0.9-3.9l-0.9-3.9l-0.8-3.9l-0.8-3.9l-0.7-3.9l-0.7-3.9l-0.7-3.9l-0.8-3.9l-0.8-3.9l-0.8-3.9l-0.9-3.9l-0.9-3.9
			l-0.9-3.9l-0.9-3.9l-0.8-3.9l-0.8-3.9l-0.7-3.9l-0.5-3.9l-0.4-3.9l-0.3-3.9l-0.2-3.9l-0.1-3.9l-0.1-3.9l-0.1-3.9v-3.9v-3.9v-3.9
			V161l-0.1-3.9l-0.1-3.9l-0.1-3.9l-0.1-3.9l-0.1-3.9l-0.2-3.9l-0.2-3.9l-0.2-3.9l-0.1-3.9l-0.1-3.9l-0.1-3.9l-0.1-3.9v-3.9v-3.9
			v-3.9v-4.9h-1h-1v4.9v3.9v3.9v3.9l-0.1,3.9l-0.1,3.9l-0.1,3.9l-0.1,3.9l-0.2,3.9l-0.2,3.9l-0.2,3.9l-0.1,3.9l-0.1,3.9l-0.1,3.9
			l-0.1,3.9l-0.1,3.9v3.9v3.9v3.9v3.9l-0.1,3.9l-0.1,3.9l-0.1,3.9l-0.2,3.9l-0.3,3.9l-0.4,3.9l-0.5,3.9l-0.7,3.9l-0.8,3.9l-0.8,3.9
			l-0.9,3.9l-0.9,3.9l-0.9,3.9l-0.9,3.9l-0.8,3.9l-0.8,3.9l-0.8,3.9l-0.7,3.9l-0.7,3.9l-0.7,3.9l-0.8,3.9l-0.8,3.9l-0.9,3.9
			l-0.9,3.9l-1,3.9L102,278l-1.2,3.9l-1.2,3.9l-1.3,3.9l-1.3,3.9l-1.3,3.9l-1.2,3.9l-1.2,3.9l-1,3.9l-0.9,3.9l-0.7,3.9l-0.5,3.9
			l-0.3,3.9v3.9l0.3,3.9l0.7,3.9l1.2,3.9L93.1,344.3z"/>
	</g>
	<g>
		<path class="st6" d="M121.7,361h18.9l2.8-4.9l2.6-3.9l2.4-3.9l2-3.9l1.6-3.9l1.2-3.9l0.7-3.9l0.3-3.9v-3.9l-0.3-3.9l-0.5-3.9
			l-0.7-3.9l-0.9-3.9l-1-3.9l-1.2-3.9l-1.2-3.9l-1.3-3.9l-1.3-3.9l-1.3-3.9l-1.2-3.9l-1.2-3.9l-1.1-3.9l-1-3.9l-0.9-3.9l-0.9-3.9
			l-0.8-3.9l-0.8-3.9l-0.7-3.9l-0.7-3.9l-0.7-3.9l-0.8-3.9l-0.8-3.9l-0.8-3.9l-0.9-3.9l-0.9-3.9l-0.9-3.9l-0.9-3.9l-0.8-3.9
			l-0.8-3.9l-0.7-3.9l-0.5-3.9l-0.4-3.9l-0.3-3.9l-0.2-3.9l-0.1-3.9l-0.1-3.9l-0.1-3.9v-3.9v-3.9V165v-3.9l-0.1-3.9l-0.1-3.9
			l-0.1-3.9l-0.1-3.9l-0.1-3.9l-0.2-3.9l-0.2-3.9l-0.2-3.9l-0.1-3.9l-0.1-3.9l-0.1-3.9l-0.1-3.9v-3.9v-3.9v-3.9v-4.9h-1l0,0h-1v4.9
			v3.9v3.9v3.9l-0.1,3.9l-0.1,3.9l-0.1,3.9l-0.1,3.9l-0.2,3.9l-0.2,3.9l-0.2,3.9l-0.1,3.9l-0.1,3.9l-0.1,3.9l-0.1,3.9l-0.1,3.9v3.9
			v3.9v3.9v3.9l-0.1,3.9l-0.1,3.9l-0.1,3.9l-0.2,3.9l-0.3,3.9l-0.4,3.9l-0.5,3.9l-0.7,3.9l-0.8,3.9l-0.8,3.9l-0.9,3.9l-0.9,3.9
			l-0.9,3.9l-0.9,3.9l-0.8,3.9l-0.8,3.9l-0.8,3.9l-0.7,3.9l-0.7,3.9l-0.7,3.9l-0.8,3.9l-0.8,3.9l-0.9,3.9l-0.9,3.9l-1,3.9l-1.1,3.9
			l-1.2,3.9l-1.2,3.9l-1.3,3.9l-1.3,3.9l-1.3,3.9l-1.2,3.9l-1.2,3.9l-1,3.9l-0.9,3.9l-0.7,3.9l-0.5,3.9l-0.3,3.9v3.9l0.3,3.9
			l0.7,3.9l1.2,3.9l1.6,3.9l2,3.9l2.4,3.9l2.6,3.9l2.8,4.9H121.7L121.7,361"/>
	</g>
	<g>
		<path class="st7" d="M120.7,335.2h2.2v-68.4h-2.2V335.2z"/>
	</g>
	<g>
		<path class="st6" d="M120.7,335.2h2.2v-68.4h-2.2V335.2"/>
		<line class="st8" x1="121.7" y1="361" x2="121.7" y2="181.1"/>
	</g>
	<g transform="translate(127.25,281.6745)">
		<circle class="st9" cx="-5.5" cy="25.5" r="3"/>
	</g>
	<g transform="translate(127.25,281.6745)">
		<path class="st7" d="M-5.5,22.9c1.4,0,2.6,1.2,2.6,2.6l0,0c0,1.4-1.2,2.6-2.6,2.6s-2.6-1.2-2.6-2.6S-6.9,22.9-5.5,22.9z
			 M-5.5,22.1c-1.9,0-3.4,1.5-3.4,3.4s1.5,3.4,3.4,3.4s3.4-1.5,3.4-3.4l0,0C-2.1,23.6-3.6,22.1-5.5,22.1z"/>
	</g>
	<g transform="translate(239.826,333.7799)">
		<circle class="st10" cx="19.5" cy="26.5" r="3"/>
		<circle class="st10" cx="20" cy="-47.9" r="3"/>
		<circle class="st10" cx="18.8" cy="-16.4" r="3"/>
		<circle class="st10" cx="36.8" cy="19.2" r="3"/>
		<circle class="st10" cx="36.4" cy="15.3" r="3"/>
		<circle class="st10" cx="24.2" cy="20.8" r="3"/>
		<circle class="st10" cx="10.4" cy="-6.6" r="3"/>
		<circle class="st10" cx="16.2" cy="-88.5" r="3"/>
		<circle class="st10" cx="32.6" cy="11.5" r="3"/>
		<circle class="st10" cx="41.2" cy="20.2" r="3"/>
		<circle class="st10" cx="37.1" cy="11.8" r="3"/>
		<circle class="st10" cx="3.6" cy="14.6" r="3"/>
		<circle class="st10" cx="33.3" cy="9.2" r="3"/>
		<circle class="st10" cx="9.8" cy="13.6" r="3"/>
		<circle class="st10" cx="26.5" cy="11.2" r="3"/>
		<circle class="st10" cx="32.7" cy="20.3" r="3"/>
		<circle class="st10" cx="2.9" cy="29" r="3"/>
		<circle class="st10" cx="-2.8" cy="5.6" r="3"/>
		<circle class="st10" cx="40.5" cy="11.3" r="3"/>
		<circle class="st10" cx="-3.9" cy="25.9" r="3"/>
		<circle class="st10" cx="38" cy="27.4" r="3"/>
		<circle class="st10" cx="31.7" cy="14.2" r="3"/>
		<circle class="st10" cx="33.9" cy="24" r="3"/>
		<circle class="st10" cx="3.8" cy="29.2" r="3"/>
		<circle class="st10" cx="9.4" cy="-34.9" r="3"/>
		<circle class="st10" cx="15.3" cy="-44" r="3"/>
		<circle class="st10" cx="11.6" cy="-29" r="3"/>
		<circle class="st10" cx="16.6" cy="-49.8" r="3"/>
		<circle class="st10" cx="14.3" cy="-55.4" r="3"/>
		<circle class="st10" cx="13.3" cy="-39.3" r="3"/>
		<circle class="st10" cx="17" cy="-40.7" r="3"/>
		<circle class="st10" cx="12.9" cy="-36.7" r="3"/>
		<circle class="st10" cx="30.5" cy="18.1" r="3"/>
		<circle class="st10" cx="11.4" cy="-4" r="3"/>
		<circle class="st10" cx="15.7" cy="-75.9" r="3"/>
		<circle class="st10" cx="-4.5" cy="28.6" r="3"/>
		<circle class="st10" cx="24.5" cy="25.7" r="3"/>
		<circle class="st10" cx="12.5" cy="-37.3" r="3"/>
		<circle class="st10" cx="12.2" cy="-40.1" r="3"/>
		<circle class="st10" cx="-8.6" cy="17.8" r="3"/>
		<circle class="st10" cx="36.4" cy="26.3" r="3"/>
		<circle class="st10" cx="37.1" cy="7.1" r="3"/>
		<circle class="st10" cx="31.1" cy="30.7" r="3"/>
		<circle class="st10" cx="-5.1" cy="9.1" r="3"/>
		<circle class="st10" cx="-6.3" cy="28.8" r="3"/>
		<circle class="st10" cx="22.4" cy="11.5" r="3"/>
		<circle class="st10" cx="41.1" cy="10.7" r="3"/>
		<circle class="st10" cx="14" cy="-20.8" r="3"/>
		<circle class="st10" cx="15.5" cy="0.2" r="3"/>
		<circle class="st10" cx="18.7" cy="19.2" r="3"/>
		<circle class="st10" cx="-2.5" cy="14.1" r="3"/>
		<circle class="st10" cx="40.6" cy="10.6" r="3"/>
		<circle class="st10" cx="-3.1" cy="12.7" r="3"/>
		<circle class="st10" cx="-6.1" cy="25.9" r="3"/>
		<circle class="st10" cx="47.1" cy="17.2" r="3"/>
		<circle class="st10" cx="17.1" cy="-19" r="3"/>
		<circle class="st10" cx="18.2" cy="10.8" r="3"/>
		<circle class="st10" cx="32.7" cy="18.5" r="3"/>
		<circle class="st10" cx="39.7" cy="14.4" r="3"/>
		<circle class="st10" cx="35.1" cy="10.8" r="3"/>
		<circle class="st10" cx="33" cy="5.9" r="3"/>
		<circle class="st10" cx="-3.9" cy="11.7" r="3"/>
		<circle class="st10" cx="13.9" cy="-67.9" r="3"/>
		<circle class="st10" cx="1.7" cy="3.8" r="3"/>
		<circle class="st10" cx="9.8" cy="28.4" r="3"/>
		<circle class="st10" cx="-3.2" cy="26.2" r="3"/>
		<circle class="st10" cx="6.2" cy="28.5" r="3"/>
		<circle class="st10" cx="-5.3" cy="18.9" r="3"/>
		<circle class="st10" cx="13.1" cy="-4.4" r="3"/>
		<circle class="st10" cx="16.6" cy="29.4" r="3"/>
		<circle class="st10" cx="17.8" cy="24" r="3"/>
		<circle class="st10" cx="40.1" cy="25.3" r="3"/>
		<circle class="st10" cx="-13.5" cy="25" r="3"/>
		<circle class="st10" cx="9.9" cy="24" r="3"/>
		<circle class="st10" cx="36.9" cy="26.5" r="3"/>
		<circle class="st10" cx="-6.8" cy="24" r="3"/>
		<circle class="st10" cx="-12" cy="21.1" r="3"/>
		<circle class="st10" cx="-2.7" cy="12.4" r="3"/>
		<circle class="st10" cx="31.9" cy="25.8" r="3"/>
		<circle class="st10" cx="3.2" cy="3.6" r="3"/>
	</g>
	<g>
		<path class="st11" d="M227.6,360.3l2.6,1.7l3,2.5h22h22l3-2.5l2.6-1.7l2.1-1.7l1.5-1.7l1-1.7l0.5-1.7v-1.7l-0.4-1.7l-0.8-1.7
			l-1.2-1.7l-1.7-1.7l-2-1.7l-2.4-1.7l-2.6-1.7l-2.6-1.7l-2.6-1.7l-2.4-1.7l-2.2-1.7l-1.9-1.7l-1.6-1.7l-1.3-1.7l-1-1.7l-0.8-1.7
			l-0.6-1.7l-0.4-1.7l-0.3-1.7l-0.2-1.7l-0.1-1.7v-1.7v-1.7V311l0.1-1.7l0.1-1.7l0.2-1.7l0.3-1.7l0.4-1.7l0.5-1.7l0.5-1.7l0.5-1.7
			l0.4-1.7l0.3-1.7l0.1-1.7l-0.1-1.7l-0.2-1.7l-0.4-1.7l-0.5-1.7l-0.5-1.7l-0.5-1.7l-0.5-1.7l-0.5-1.7l-0.5-1.7l-0.4-1.7l-0.4-1.7
			l-0.3-1.7l-0.2-1.7l-0.1-1.7l-0.1-1.7v-1.7v-1.7v-1.7V260v-1.7v-1.7v-1.7l-0.1-1.7l-0.1-1.7l-0.1-1.7l-0.1-1.7l-0.1-1.7l-0.1-1.7
			l-0.1-2.5h-1.1h-1.1l-0.1,2.5l-0.1,1.7l-0.1,1.7l-0.1,1.7l-0.1,1.7l-0.1,1.7l-0.1,1.7v1.7v1.7v1.7v1.7v1.7v1.7v1.7l-0.1,1.7
			l-0.1,1.7l-0.2,1.7l-0.3,1.7l-0.4,1.7l-0.4,1.7l-0.5,1.7l-0.5,1.7l-0.5,1.7l-0.5,1.7l-0.4,3.7l-0.5,1.7l-0.4,1.7l-0.1,1.6
			l-0.1,1.7l0.1,1.7l0.3,1.7l0.4,1.7l0.5,1.7l0.5,1.7l0.5,1.7l0.4,1.7l0.3,1.7l0.2,1.7l0.1,1.7l0.1,1.7v1.7v1.7v1.7l-0.1,1.7
			l-0.2,1.7l-0.3,1.7l-0.4,1.7l-0.6,1.7l-0.8,1.7l-1,1.7l-1.3,1.7l-1.6,1.7l-1.9,1.7l-2.1,0.5l-2.4,1.7l-2.6,1.7l-2.6,1.7l-2.6,1.7
			l-2.4,1.7l-2,1.7l-1.7,1.7l-1.2,1.7l-0.8,1.7l-0.4,1.7v1.7l0.5,1.7l1,1.7l1.5,1.7L227.6,360.3z"/>
	</g>
	<g>
		<path class="st6" d="M255.3,364.5h22l3-2.5l2.6-1.7l2.1-1.7l1.5-1.7l1-1.7l0.5-1.7v-1.7l-0.4-1.7l-0.8-1.7l-1.2-1.7l-1.7-1.7
			l-2-1.7l-2.4-1.7l-2.6-1.7l-2.6-1.7l-2.6-1.7l-2.4-1.7l-2.2-1.7l-1.9-1.7l-1.6-1.7l-1.3-1.7l-1-1.7l-0.8-1.7l-0.6-1.7l-0.4-1.7
			l-0.3-1.7l-0.2-1.7l-0.1-1.7v-1.7v-1.7V311l0.1-1.7l0.1-1.7l0.2-1.7l0.3-1.7l0.4-1.7l0.5-1.7l0.5-1.7l0.5-1.7l0.4-1.7l0.3-1.7
			l0.1-1.7l-0.1-1.7l-0.2-1.7l-0.4-1.7l-0.5-1.7l-0.5-1.7l-0.5-1.7l-0.5-1.7l-0.5-1.7l-0.5-1.7l-0.4-1.7l-0.4-1.7l-0.3-1.7l-0.2-1.7
			l-0.1-1.7l-0.1-1.7v-1.7v-1.7v-1.7V260v-1.7v-1.7v-1.7l-0.1-1.7l-0.1-1.7l-0.1-1.7l-0.1-1.7l-0.1-1.7l-0.1-1.7l-0.1-2.5h-1.1l0,0
			h-1.1l-0.1,2.5l-0.1,1.7l-0.1,1.7l-0.1,1.7l-0.1,1.7l-0.1,1.7l-0.1,1.7v1.7v1.7v1.7v1.7v1.7v1.7v1.7l-0.1,1.7l-0.1,1.7l-0.2,1.7
			l-0.3,1.7l-0.4,1.7L252,277l-0.5,1.7l-0.5,1.7l-0.5,1.7l-0.5,1.7l-0.5,3.7l-0.5,1.7l-0.4,1.7l-0.1,1.6l-0.1,1.7l0.1,1.7l0.3,1.7
			l0.4,1.7l0.5,1.7l0.5,1.7l0.5,1.7l0.4,1.7l0.3,1.7l0.2,1.7l0.1,1.7l0.1,1.7v1.7v1.7v1.7l-0.1,1.7l-0.2,1.7l-0.3,1.7l-0.4,1.7
			l-0.6,1.7l-0.8,1.7l-1,1.7l-1.3,1.7l-1.6,1.7l-1.9,1.7l-2.1,0.5l-2.4,1.7l-2.6,1.7l-2.6,1.7l-2.6,1.7l-2.4,1.7l-2,1.7l-1.7,1.7
			l-1.2,1.7l-0.8,1.7l-0.4,1.7v1.7l0.5,1.7l1,1.7l1.5,1.7l2.1,1.7l2.6,1.7l3,2.5h21.8V364.5"/>
	</g>
	<g>
		<path class="st7" d="M254.2,357.8h2.2v-25.9h-2.2V357.8z"/>
	</g>
	<g>
		<path class="st6" d="M254.2,357.8h2.2v-25.9h-2.2V357.8"/>
		<line class="st8" x1="255.3" y1="364.5" x2="255.3" y2="293.7"/>
	</g>
	<g transform="translate(235.75,320.392)">
		<circle class="st9" cx="19.5" cy="26.5" r="3"/>
	</g>
	<g transform="translate(235.75,320.392)">
		<path class="st7" d="M19.5,23.9c1.4,0,2.6,1.2,2.6,2.6l0,0c0,1.4-1.2,2.6-2.6,2.6c-1.4,0-2.6-1.2-2.6-2.6
			C16.9,25.1,18.1,23.9,19.5,23.9z M19.5,23.1c-1.9,0-3.4,1.5-3.4,3.4c0,1.9,1.5,3.4,3.4,3.4c1.9,0,3.4-1.5,3.4-3.4l0,0
			C22.9,24.6,21.4,23.1,19.5,23.1z"/>
	</g>
	<g transform="translate(342.8176,336.6414)">
		<circle class="st12" cx="25.5" cy="26.5" r="3"/>
		<circle class="st12" cx="19.7" cy="26.3" r="3"/>
		<circle class="st12" cx="4" cy="25.3" r="3"/>
		<circle class="st12" cx="21.4" cy="26.9" r="3"/>
		<circle class="st12" cx="49" cy="24.7" r="3"/>
		<circle class="st12" cx="33.7" cy="26.2" r="3"/>
		<circle class="st12" cx="28.3" cy="20.9" r="3"/>
		<circle class="st12" cx="0.8" cy="15.5" r="3"/>
		<circle class="st12" cx="21.7" cy="9.4" r="3"/>
		<circle class="st12" cx="38.2" cy="12.5" r="3"/>
		<circle class="st12" cx="14" cy="12.2" r="3"/>
		<circle class="st12" cx="28.2" cy="8.2" r="3"/>
		<circle class="st12" cx="23.4" cy="-64" r="3"/>
		<circle class="st12" cx="11.7" cy="8.7" r="3"/>
		<circle class="st12" cx="19.2" cy="19.6" r="3"/>
		<circle class="st12" cx="53.6" cy="17.7" r="3"/>
		<circle class="st12" cx="42.2" cy="0" r="3"/>
		<circle class="st12" cx="24.1" cy="-29" r="3"/>
		<circle class="st12" cx="23.5" cy="-34.4" r="3"/>
		<circle class="st12" cx="28.5" cy="-45.9" r="3"/>
		<circle class="st12" cx="18.9" cy="-2.5" r="3"/>
		<circle class="st12" cx="16.2" cy="19.6" r="3"/>
		<circle class="st12" cx="47.7" cy="11.5" r="3"/>
		<circle class="st12" cx="23.6" cy="14.7" r="3"/>
		<circle class="st12" cx="27.2" cy="-68.3" r="3"/>
		<circle class="st12" cx="37.4" cy="-14.3" r="3"/>
		<circle class="st12" cx="11.5" cy="8.7" r="3"/>
		<circle class="st12" cx="36.4" cy="-16.1" r="3"/>
		<circle class="st12" cx="20.5" cy="-19.3" r="3"/>
		<circle class="st12" cx="21.3" cy="-30.7" r="3"/>
		<circle class="st12" cx="30.1" cy="-56" r="3"/>
		<circle class="st12" cx="26.2" cy="-122.5" r="3"/>
		<circle class="st12" cx="31.8" cy="-15.9" r="3"/>
		<circle class="st12" cx="27.6" cy="-7.1" r="3"/>
		<circle class="st12" cx="12.7" cy="11.8" r="3"/>
		<circle class="st12" cx="29.1" cy="26.2" r="3"/>
		<circle class="st12" cx="15.8" cy="24.8" r="3"/>
		<circle class="st12" cx="50.5" cy="24.4" r="3"/>
		<circle class="st12" cx="47.4" cy="27.7" r="3"/>
		<circle class="st12" cx="10.3" cy="27" r="3"/>
	</g>
	<g>
		<path class="st12" d="M338.6,351.1l-1,2.2l-0.4,2.2l0.3,2.2l1.1,2.2l1.8,2.2l2.4,2.4h26.9h26.9l2.4-2.4l1.8-2.2l1.1-2.2l0.3-2.2
			l-0.4-2.2l-1-2.2l-1.6-2.2l-1.9-2.2l-2.2-2.2l-2.3-2.2l-2.3-2.2l-2.1-2.2l-1.9-2.2l-1.6-2.2l-1.3-2.2l-1-2.2l-0.7-2.2l-0.6-2.2
			l-0.4-2.2l-0.4-2.2l-0.4-2.2l-0.4-2.2l-0.4-2.2l-0.4-2.2l-0.5-2.2l-0.5-2.2l-0.5-2.2l-0.5-2.2l-0.5-2.2l-0.5-2.2l-0.4-2.2
			l-0.4-2.2l-0.3-2.2l-0.2-2.2l-0.1-2.2l-0.1-2.2v-2.2v-2.2v-2.2v-2.2l-0.1-2.2l-0.2-2.2l-0.3-2.2l-0.3-2.2l-0.4-2.2l-0.5-2.2
			l-0.5-2.2l-0.5-2.2l-0.5-2.2l-0.4-2.2l-0.3-2.2l-0.3-2.2l-0.2-2.2l-0.2-2.2l-0.1-2.2l-0.1-2.2v-2.2v-2.2v-2.2l0.1-2.2l0.1-2.2
			l0.1-2.2l0.2-2.2l0.2-2.2l0.2-2.2l0.2-2.2l0.1-2.2l0.1-2.2v-2.4h-1.6h-1.6v2.4l0.1,2.2l0.1,2.2l0.2,2.2l0.2,2.2l0.2,2.2l0.2,2.2
			l0.1,2.2l0.1,2.2l0.1,2.2v2.2v2.2v2.2l-0.1,2.2l-0.1,2.2l-0.2,2.2l-0.2,2.2l-0.3,2.2l-0.3,2.2l-0.4,2.2l-0.5,2.2l-0.5,2.2
			l-0.5,2.2l-0.5,2.2l-0.4,2.2l-0.3,2.2l-0.3,2.2l-0.2,2.2l-0.1,2.2v2.2v2.2v2.2v2.2l-0.1,2.2l-0.1,2.2l-0.2,2.2l-0.3,2.2l-0.4,2.2
			l-0.4,2.2l-0.5,2.2l-0.5,2.2l-0.5,2.2l-0.5,2.2l-0.5,2.2l-0.5,2.2l-0.4,2.2l-0.4,2.2l-0.4,2.2l-0.4,2.2l-0.4,2.2l-0.4,2.2
			l-0.6,2.2l-0.7,2.2l-1,2.2l-1.3,2.2l-1.6,2.2l-1.9,2.2l-2.1,2.2l-2.3,2.2l-2.3,2.2l-2.2,2.2l-1.9,2.2L338.6,351.1z"/>
	</g>
	<g>
		<path class="st6" d="M369.7,364.3h26.9l2.4-2.4l1.8-2.2l1.1-2.2l0.3-2.2l-0.4-2.2l-1-2.2l-1.6-2.2l-1.9-2.2l-2.2-2.2l-2.3-2.2
			l-2.3-2.2l-2.1-2.2l-1.9-2.2l-1.6-2.2l-1.3-2.2l-1-2.2l-0.7-2.2l-0.6-2.2l-0.4-2.2l-0.4-2.2l-0.4-2.2l-0.4-2.2l-0.4-2.2l-0.4-2.2
			l-0.5-2.2l-0.5-2.2l-0.5-2.2l-0.5-2.2l-0.5-2.2l-0.5-2.2l-0.4-2.2l-0.4-2.2l-0.3-2.2l-0.2-2.2l-0.1-2.2l-0.1-2.2v-2.2v-2.2v-2.2
			v-2.2l-0.1-2.2l-0.2-2.2l-0.3-2.2l-0.3-2.2l-0.4-2.2l-0.5-2.2l-0.5-2.2l-0.5-2.2l-0.5-2.2l-0.4-2.2l-0.3-2.2l-0.3-2.2l-0.2-2.2
			l-0.2-2.2l-0.1-2.2l-0.1-2.2v-2.2v-2.2v-2.2l0.1-2.2l0.1-2.2l0.1-2.2l0.2-2.2l0.2-2.2l0.2-2.2l0.2-2.2l0.1-2.2l0.1-2.2v-2.4h-1.6
			l0,0h-1.6v2.4l0.1,2.2l0.1,2.2l0.2,2.2l0.2,2.2l0.2,2.2l0.2,2.2l0.1,2.2l0.1,2.2l0.1,2.2v2.2v2.2v2.2l-0.1,2.2l-0.1,2.2l-0.2,2.2
			l-0.2,2.2l-0.3,2.2l-0.3,2.2l-0.4,2.2l-0.5,2.2l-0.5,2.2l-0.5,2.2l-0.5,2.2l-0.4,2.2l-0.3,2.2l-0.3,2.2l-0.2,2.2l-0.1,2.2v2.2v2.2
			v2.2v2.2l-0.1,2.2l-0.1,2.2l-0.2,2.2l-0.3,2.2l-0.4,2.2l-0.4,2.2l-0.5,2.2l-0.5,2.2l-0.5,2.2l-0.5,2.2l-0.5,2.2l-0.5,2.2l-0.4,2.2
			l-0.4,2.2l-0.4,2.2l-0.4,2.2l-0.4,2.2l-0.4,2.2l-0.6,2.2l-0.7,2.2l-1,2.2l-1.3,2.2l-1.6,2.2l-1.9,2.2l-2.1,2.2l-2.3,2.2l-2.3,2.2
			l-2.2,2.2l-1.9,2.2l-1.6,2.2l-1,2.2l-0.4,2.2l0.3,2.2l1.1,2.2l1.8,2.2l2.4,2.4H369.7L369.7,364.3"/>
	</g>
	<g>
		<path class="st7" d="M368.7,361.2h2.2v-40.6h-2.2V361.2z"/>
	</g>
	<g>
		<path class="st6" d="M368.7,361.2h2.2v-40.6h-2.2V361.2"/>
		<line class="st8" x1="369.7" y1="364.3" x2="369.7" y2="268.4"/>
	</g>
	<g transform="translate(344.25,321.793)">
		<circle class="st9" cx="25.5" cy="25.5" r="3"/>
	</g>
	<g transform="translate(344.25,321.793)">
		<path class="st7" d="M25.5,22.9c1.4,0,2.6,1.2,2.6,2.6l0,0c0,1.4-1.2,2.6-2.6,2.6c-1.4,0-2.6-1.2-2.6-2.6
			C22.9,24.1,24.1,22.9,25.5,22.9z M25.5,22.1c-1.9,0-3.4,1.5-3.4,3.4c0,1.9,1.5,3.4,3.4,3.4c1.9,0,3.4-1.5,3.4-3.4l0,0
			C28.9,23.6,27.4,22.1,25.5,22.1z"/>
	</g>
	<g transform="translate(478.946,337.909)">
		<circle class="st13" cx="-5.5" cy="26.5" r="3"/>
		<circle class="st13" cx="-20" cy="26.2" r="3"/>
		<circle class="st13" cx="-55.5" cy="21.4" r="3"/>
		<circle class="st13" cx="-39.5" cy="24.9" r="3"/>
		<circle class="st13" cx="-32" cy="-51.4" r="3"/>
		<circle class="st13" cx="-28.1" cy="-25.2" r="3"/>
		<circle class="st13" cx="-43.9" cy="23.5" r="3"/>
		<circle class="st13" cx="-44.6" cy="25.5" r="3"/>
		<circle class="st13" cx="-45.3" cy="5.2" r="3"/>
		<circle class="st13" cx="-51.4" cy="12.5" r="3"/>
		<circle class="st13" cx="-32.2" cy="-185" r="3"/>
		<circle class="st13" cx="-16.6" cy="20.3" r="3"/>
		<circle class="st13" cx="-2.3" cy="11.7" r="3"/>
		<circle class="st13" cx="-30.3" cy="-8.9" r="3"/>
		<circle class="st13" cx="-36.5" cy="18.8" r="3"/>
		<circle class="st13" cx="-42.2" cy="13.5" r="3"/>
		<circle class="st13" cx="-31.8" cy="-91.5" r="3"/>
		<circle class="st13" cx="-57.4" cy="3.6" r="3"/>
		<circle class="st13" cx="-28.5" cy="-45.2" r="3"/>
		<circle class="st13" cx="-43.3" cy="-0.6" r="3"/>
		<circle class="st13" cx="-33.1" cy="7.9" r="3"/>
		<circle class="st13" cx="-43.2" cy="4.3" r="3"/>
		<circle class="st13" cx="-17.5" cy="-5.9" r="3"/>
		<circle class="st13" cx="-16.6" cy="5.8" r="3"/>
		<circle class="st13" cx="-60.3" cy="7.3" r="3"/>
		<circle class="st13" cx="-37.5" cy="-47" r="3"/>
		<circle class="st13" cx="-27.5" cy="-32.7" r="3"/>
		<circle class="st13" cx="-55.7" cy="10.6" r="3"/>
		<circle class="st13" cx="-29.4" cy="-73.5" r="3"/>
		<circle class="st13" cx="-36.6" cy="-66.6" r="3"/>
		<circle class="st13" cx="-25.1" cy="-68" r="3"/>
		<circle class="st13" cx="-39.1" cy="-72.9" r="3"/>
		<circle class="st13" cx="-49.5" cy="18.2" r="3"/>
		<circle class="st13" cx="-13.3" cy="25.2" r="3"/>
		<circle class="st13" cx="-21.6" cy="5.8" r="3"/>
		<circle class="st13" cx="-23.7" cy="-55.5" r="3"/>
		<circle class="st13" cx="-59.7" cy="23.9" r="3"/>
		<circle class="st13" cx="-19.9" cy="25.4" r="3"/>
		<circle class="st13" cx="-48.3" cy="25.4" r="3"/>
		<circle class="st13" cx="-55.3" cy="25" r="3"/>
	</g>
	<g>
		<path class="st13" d="M414.7,354.5l0.6,2.9l1.5,2.9l2.3,4h28.1h28.1l2.3-4l1.5-2.9l0.6-2.9l-0.2-3l-1.1-2.9l-1.8-2.9l-2.3-2.9
			l-2.7-2.9l-2.9-2.9l-2.9-2.9l-2.8-2.9l-2.5-2.9l-2.2-2.9l-1.8-2.9l-1.3-2.9l-0.9-2.9l-0.5-2.9l-0.2-2.9V308l0.2-2.9l0.3-2.9
			l0.4-2.9l0.4-2.9l0.4-2.9l0.4-2.9l0.3-2.9l0.2-2.9l0.1-2.9V279l-0.1-2.9l-0.2-2.9l-0.4-2.9l-0.5-2.9l-0.6-2.9l-0.7-2.9l-0.7-2.9
			l-0.8-2.9l-0.7-2.9l-0.7-2.9l-0.6-2.9l-0.6-2.9l-0.5-2.9l-0.4-2.9l-0.4-2.9l-0.3-2.9l-0.3-2.9l-0.2-2.9l-0.2-2.9l-0.1-2.9
			l-0.1-2.9v-2.9v-2.9v-2.9v-2.9v-2.9v-2.9v-2.9v-2.9V192v-2.9v-2.9l0.1-2.9l0.1-2.9l0.1-2.9l0.2-2.9l0.2-2.9l0.2-2.9l0.2-2.9
			l0.2-2.9l0.1-2.9l0.1-4h-1.5h-1.5l0.1,4l0.1,2.9l0.2,2.9l0.2,2.9l0.2,2.9l0.2,2.9l0.2,2.9l0.1,2.9l0.1,2.9l0.1,2.9v2.9v2.9v2.9
			v2.9v2.9v2.9v2.9v2.9v2.9v2.9v2.9l-0.1,2.9l-0.1,2.9l-0.2,2.9l-0.2,2.9l-0.3,2.9l-0.3,2.9l-0.4,2.9l-0.4,2.9l-0.5,2.9l-0.6,2.9
			l-0.6,2.9l-0.7,2.9l-0.7,2.9l-0.8,2.9l-0.7,2.9l-0.7,2.9l-0.6,2.9l-0.5,2.9l-0.4,2.9l-0.2,2.9l-0.1,2.9v2.9l0.1,2.9l0.2,2.9
			l0.3,2.9l0.4,2.9l0.4,2.9l0.4,2.9l0.4,2.9l0.3,2.9l0.2,2.9v2.9l-0.2,2.9l-0.5,2.9l-0.9,2.9l-1.3,2.9l-1.8,2.9l-2.2,2.9l-2.5,2.9
			l-2.8,2.9l-2.9,2.9l-2.9,2.9l-2.7,2.9l-2.3,2.9l-1.8,2.9l-1.1,2.9L414.7,354.5z"/>
	</g>
	<g>
		<path class="st6" d="M447.3,364.4h28.1l2.3-4l1.5-2.9l0.6-2.9l-0.3-3.1l-1.1-2.9l-1.8-2.9l-2.3-2.9l-2.7-2.9l-2.9-2.9l-2.9-2.9
			l-2.8-2.9l-2.5-2.9l-2.2-2.9l-1.8-2.9l-1.3-2.9l-0.9-2.9l-0.5-2.9l-0.2-2.9V308l0.2-2.9l0.3-2.9l0.4-2.9l0.4-2.9l0.4-2.9l0.4-2.9
			l0.3-2.9l0.2-2.9l0.1-2.9V279l-0.1-2.9l-0.2-2.9l-0.4-2.9l-0.5-2.9l-0.6-2.9l-0.7-2.9l-0.7-2.9l-0.8-2.9l-0.7-2.9l-0.7-2.9
			l-0.6-2.9l-0.6-2.9l-0.5-2.9l-0.4-2.9l-0.4-2.9l-0.3-2.9l-0.3-2.9l-0.2-2.9l-0.2-2.9l-0.1-2.9l-0.1-2.9v-2.9v-2.9v-2.9v-2.9v-2.9
			v-2.9v-2.9v-2.9V192v-2.9v-2.9l0.1-2.9l0.1-2.9l0.1-2.9l0.2-2.9l0.2-2.9l0.2-2.9l0.2-2.9l0.2-2.9l0.1-2.9l0.1-4h-1.5l0,0h-1.5
			l0.1,4l0.1,2.9l0.2,2.9l0.2,2.9l0.2,2.9l0.2,2.9l0.2,2.9l0.1,2.9l0.1,2.9l0.1,2.9v2.9v2.9v2.9v2.9v2.9v2.9v2.9v2.9v2.9v2.9v2.9
			l-0.1,2.9l-0.1,2.9l-0.2,2.9l-0.2,2.9l-0.3,2.9l-0.3,2.9l-0.4,2.9l-0.4,2.9l-0.5,2.9l-0.6,2.9l-0.6,2.9l-0.7,2.9l-0.7,2.9
			l-0.8,2.9l-0.7,2.9l-0.7,2.9l-0.6,2.9l-0.5,2.9l-0.4,2.9l-0.2,2.9l-0.1,2.9v2.9l0.1,2.9l0.2,2.9l0.3,2.9l0.4,2.9l0.4,2.9l0.4,2.9
			l0.4,2.9l0.3,2.9l0.2,2.9v2.9l-0.2,2.9l-0.5,2.9l-0.9,2.9l-1.3,2.9l-1.8,2.9l-2.2,2.9l-2.5,2.9l-2.8,2.9l-2.9,2.9l-2.9,2.9
			l-2.7,2.9l-2.3,2.9l-1.8,2.9l-1.1,2.9l-0.3,2.9l0.6,2.9l1.5,2.9l2.3,4h28.3V364.4"/>
	</g>
	<g>
		<path class="st7" d="M446.2,360.3h2.2v-61.4h-2.2V360.3z"/>
	</g>
	<g>
		<path class="st6" d="M446.2,360.3h2.2v-61.4h-2.2V360.3"/>
		<line class="st8" x1="447.3" y1="364.4" x2="447.3" y2="246.4"/>
	</g>
	<g transform="translate(452.75,317.969)">
		<circle class="st9" cx="-5.5" cy="26.5" r="3"/>
	</g>
	<g transform="translate(452.75,317.969)">
		<path class="st7" d="M-5.5,23.9c1.4,0,2.6,1.2,2.6,2.6l0,0c0,1.4-1.2,2.6-2.6,2.6s-2.6-1.2-2.6-2.6C-8.1,25.1-6.9,23.9-5.5,23.9z
			 M-5.5,23.1c-1.9,0-3.4,1.5-3.4,3.4c0,1.9,1.5,3.4,3.4,3.4s3.4-1.5,3.4-3.4l0,0C-2.1,24.6-3.6,23.1-5.5,23.1z"/>
	</g>
</g>
<g>
	<g>
		<path d="M96.7,374.2v5.1c0,2.2,1.3,2.8,2.4,2.8c1.4,0,2.4-0.6,2.4-2.8v-5.1h0.7v5c0,2.6-1.4,3.4-3.1,3.4c-1.7,0-3.1-0.9-3.1-3.3
			v-5.2H96.7z"/>
		<path d="M104.4,378.1c0-0.5,0-1,0-1.5h0.6c0,0.2,0,1,0,1.1c0.3-0.6,0.8-1.3,2-1.3c1.1,0,2,0.6,2,2.3v3.9h-0.6v-3.8
			c0-1.1-0.4-1.8-1.5-1.8c-1.4,0-1.9,1.2-1.9,2.5v3.1h-0.6V378.1z"/>
		<path d="M111,373.7h0.6v1.2H111V373.7z M111,376.6h0.6v6H111V376.6z"/>
		<path d="M113.5,378.1c0-0.5,0-1,0-1.5h0.6c0,0.2,0,1,0,1.1c0.3-0.6,0.8-1.3,2-1.3c1.1,0,2,0.6,2,2.3v3.9h-0.6v-3.8
			c0-1.1-0.4-1.8-1.5-1.8c-1.4,0-1.9,1.2-1.9,2.5v3.1h-0.6V378.1z"/>
		<path d="M120.3,382.5v-5.4h-1v-0.6h1v-0.9c0-1,0.3-2.1,1.6-2.1c0.2,0,0.4,0,0.6,0.1v0.6c-0.2,0-0.5-0.1-0.6-0.1
			c-0.7,0-1,0.5-1,1.5v0.8h1.3v0.6h-1.3v5.4H120.3z"/>
		<path d="M123.2,379.6c0,1.5,0.8,2.5,1.9,2.5c1.1,0,1.5-0.6,1.7-1.1h0.6c-0.3,0.8-0.9,1.7-2.4,1.7c-1.8,0-2.5-1.6-2.5-3.1
			c0-1.7,0.9-3.2,2.6-3.2c1.8,0,2.4,1.6,2.4,2.7c0,0.2,0,0.3,0,0.5H123.2z M127,379.1c0-1.2-0.7-2.1-1.8-2.1c-1.2,0-1.8,0.9-1.9,2.1
			H127z"/>
		<path d="M133.5,380.8c-0.3,1.1-1,1.9-2.3,1.9c-1.5,0-2.6-1.1-2.6-3.1c0-1.6,0.9-3.2,2.6-3.2c1.5,0,2.1,1.1,2.3,1.9h-0.6
			c-0.2-0.7-0.6-1.4-1.7-1.4c-1.3,0-2,1.1-2,2.6c0,1.4,0.7,2.6,1.9,2.6c0.9,0,1.4-0.4,1.7-1.3H133.5z"/>
		<path d="M134,376.6h1.1v-1.9h0.6v1.9h1.4v0.6h-1.4v3.9c0,0.7,0.1,1.1,0.7,1.1c0.2,0,0.4,0,0.6-0.1v0.5c-0.2,0.1-0.5,0.1-0.7,0.1
			c-0.8,0-1.2-0.4-1.2-1.3v-4.2H134V376.6z"/>
		<path d="M138.5,379.6c0,1.5,0.8,2.5,1.9,2.5c1.1,0,1.5-0.6,1.7-1.1h0.6c-0.3,0.8-0.9,1.7-2.4,1.7c-1.8,0-2.5-1.6-2.5-3.1
			c0-1.7,0.9-3.2,2.6-3.2c1.8,0,2.4,1.6,2.4,2.7c0,0.2,0,0.3,0,0.5H138.5z M142.3,379.1c0-1.2-0.7-2.1-1.8-2.1
			c-1.2,0-1.8,0.9-1.9,2.1H142.3z"/>
		<path d="M149.1,373.7v7.1c0,0.6,0,1.1,0,1.7h-0.6c0-0.1,0-0.7,0-1c-0.3,0.7-1,1.2-2,1.2c-1.6,0-2.5-1.3-2.5-3.1
			c0-1.8,1-3.2,2.7-3.2c1.2,0,1.7,0.5,1.9,0.9v-3.6H149.1z M144.6,379.6c0,1.6,0.9,2.5,1.9,2.5c1.6,0,2-1.1,2-2.7
			c0-1.5-0.4-2.4-1.9-2.4C145.4,377,144.6,377.9,144.6,379.6z"/>
	</g>
</g>
<g>
	<g>
		<path d="M237.9,374.3v8.4h-0.6v-8.4H237.9z"/>
		<path d="M240,378.2c0-0.5,0-1,0-1.5h0.6c0,0.2,0,1,0,1.1c0.3-0.6,0.8-1.3,2-1.3c1.1,0,2,0.6,2,2.3v3.9H244v-3.8
			c0-1.1-0.4-1.8-1.5-1.8c-1.4,0-1.9,1.2-1.9,2.5v3.1H240V378.2z"/>
		<path d="M246.8,382.7v-5.4h-1v-0.6h1v-0.9c0-1,0.3-2.1,1.6-2.1c0.2,0,0.4,0,0.6,0.1v0.6c-0.2,0-0.5-0.1-0.6-0.1
			c-0.7,0-1,0.5-1,1.5v0.8h1.3v0.6h-1.3v5.4H246.8z"/>
		<path d="M249.8,379.8c0,1.5,0.8,2.5,1.9,2.5c1.1,0,1.5-0.6,1.7-1.1h0.6c-0.3,0.8-0.9,1.7-2.4,1.7c-1.8,0-2.5-1.6-2.5-3.1
			c0-1.7,0.9-3.2,2.6-3.2c1.8,0,2.4,1.6,2.4,2.7c0,0.2,0,0.3,0,0.5H249.8z M253.6,379.2c0-1.2-0.7-2.1-1.8-2.1
			c-1.2,0-1.8,0.9-1.9,2.1H253.6z"/>
		<path d="M260.1,380.9c-0.3,1.1-1,1.9-2.3,1.9c-1.5,0-2.6-1.1-2.6-3.1c0-1.6,0.9-3.2,2.6-3.2c1.5,0,2.1,1.1,2.3,1.9h-0.6
			c-0.2-0.7-0.6-1.4-1.7-1.4c-1.3,0-2,1.1-2,2.6c0,1.4,0.7,2.6,1.9,2.6c0.9,0,1.4-0.4,1.7-1.3H260.1z"/>
		<path d="M260.6,376.7h1.1v-1.9h0.6v1.9h1.4v0.6h-1.4v3.9c0,0.7,0.1,1.1,0.7,1.1c0.2,0,0.4,0,0.6-0.1v0.5c-0.2,0.1-0.5,0.1-0.7,0.1
			c-0.8,0-1.2-0.4-1.2-1.3v-4.2h-1.1V376.7z"/>
		<path d="M265.1,379.8c0,1.5,0.8,2.5,1.9,2.5c1.1,0,1.5-0.6,1.7-1.1h0.6c-0.3,0.8-0.9,1.7-2.4,1.7c-1.8,0-2.5-1.6-2.5-3.1
			c0-1.7,0.9-3.2,2.6-3.2c1.8,0,2.4,1.6,2.4,2.7c0,0.2,0,0.3,0,0.5H265.1z M268.9,379.2c0-1.2-0.7-2.1-1.8-2.1
			c-1.2,0-1.8,0.9-1.9,2.1H268.9z"/>
		<path d="M275.6,373.8v7.1c0,0.6,0,1.1,0,1.7H275c0-0.1,0-0.7,0-1c-0.3,0.7-1,1.2-2,1.2c-1.6,0-2.5-1.3-2.5-3.1
			c0-1.8,1-3.2,2.7-3.2c1.2,0,1.7,0.5,1.9,0.9v-3.6H275.6z M271.1,379.7c0,1.6,0.9,2.5,1.9,2.5c1.6,0,2-1.1,2-2.7
			c0-1.5-0.4-2.4-1.9-2.4C271.9,377.1,271.1,378,271.1,379.7z"/>
	</g>
</g>
<g>
	<g>
		<path d="M345.9,374.3v5.1c0,2.2,1.3,2.8,2.4,2.8c1.4,0,2.4-0.6,2.4-2.8v-5.1h0.7v5c0,2.6-1.4,3.4-3.1,3.4c-1.7,0-3.1-0.9-3.1-3.3
			v-5.2H345.9z"/>
		<path d="M353.5,378.3c0-0.5,0-1,0-1.5h0.6c0,0.2,0,1,0,1.1c0.3-0.6,0.8-1.3,2-1.3c1.1,0,2,0.6,2,2.3v3.9h-0.6V379
			c0-1.1-0.4-1.8-1.5-1.8c-1.4,0-1.9,1.2-1.9,2.5v3.1h-0.6V378.3z"/>
		<path d="M360.1,373.9h0.6v1.2h-0.6V373.9z M360.1,376.7h0.6v6h-0.6V376.7z"/>
		<path d="M362.7,378.3c0-0.5,0-1,0-1.5h0.6c0,0.2,0,1,0,1.1c0.3-0.6,0.8-1.3,2-1.3c1.1,0,2,0.6,2,2.3v3.9h-0.6V379
			c0-1.1-0.4-1.8-1.5-1.8c-1.4,0-1.9,1.2-1.9,2.5v3.1h-0.6V378.3z"/>
		<path d="M369.4,382.7v-5.4h-1v-0.6h1v-0.9c0-1,0.3-2.1,1.6-2.1c0.2,0,0.4,0,0.6,0.1v0.6c-0.2,0-0.5-0.1-0.6-0.1
			c-0.7,0-1,0.5-1,1.5v0.8h1.3v0.6H370v5.4H369.4z"/>
		<path d="M372.4,379.8c0,1.5,0.8,2.5,1.9,2.5c1.1,0,1.5-0.6,1.7-1.1h0.6c-0.3,0.8-0.9,1.7-2.4,1.7c-1.8,0-2.5-1.6-2.5-3.1
			c0-1.7,0.9-3.2,2.6-3.2c1.8,0,2.4,1.6,2.4,2.7c0,0.2,0,0.3,0,0.5H372.4z M376.2,379.3c0-1.2-0.7-2.1-1.8-2.1
			c-1.2,0-1.8,0.9-1.9,2.1H376.2z"/>
		<path d="M382.7,381c-0.3,1.1-1,1.9-2.3,1.9c-1.5,0-2.6-1.1-2.6-3.1c0-1.6,0.9-3.2,2.6-3.2c1.5,0,2.1,1.1,2.3,1.9h-0.6
			c-0.2-0.7-0.6-1.4-1.7-1.4c-1.3,0-2,1.1-2,2.6c0,1.4,0.7,2.6,1.9,2.6c0.9,0,1.4-0.4,1.7-1.3H382.7z"/>
		<path d="M383.2,376.7h1.1v-1.9h0.6v1.9h1.4v0.6h-1.4v3.9c0,0.7,0.1,1.1,0.7,1.1c0.2,0,0.4,0,0.6-0.1v0.5c-0.2,0.1-0.5,0.1-0.7,0.1
			c-0.8,0-1.2-0.4-1.2-1.3v-4.2h-1.1V376.7z"/>
		<path d="M387.7,379.8c0,1.5,0.8,2.5,1.9,2.5c1.1,0,1.5-0.6,1.7-1.1h0.6c-0.3,0.8-0.9,1.7-2.4,1.7c-1.8,0-2.5-1.6-2.5-3.1
			c0-1.7,0.9-3.2,2.6-3.2c1.8,0,2.4,1.6,2.4,2.7c0,0.2,0,0.3,0,0.5H387.7z M391.5,379.3c0-1.2-0.7-2.1-1.8-2.1
			c-1.2,0-1.8,0.9-1.9,2.1H391.5z"/>
		<path d="M398.2,373.9v7.1c0,0.6,0,1.1,0,1.7h-0.6c0-0.1,0-0.7,0-1c-0.3,0.7-1,1.2-2,1.2c-1.6,0-2.5-1.3-2.5-3.1
			c0-1.8,1-3.2,2.7-3.2c1.2,0,1.7,0.5,1.9,0.9v-3.6H398.2z M393.7,379.8c0,1.6,0.9,2.5,1.9,2.5c1.6,0,2-1.1,2-2.7
			c0-1.5-0.4-2.4-1.9-2.4C394.5,377.2,393.7,378.1,393.7,379.8z"/>
	</g>
</g>
<g>
	<g>
		<path d="M428.5,374.2v8.4h-0.6v-8.4H428.5z"/>
		<path d="M430.7,378.1c0-0.5,0-1,0-1.5h0.6c0,0.2,0,1,0,1.1c0.3-0.6,0.8-1.3,2-1.3c1.1,0,2,0.6,2,2.3v3.9h-0.6v-3.8
			c0-1.1-0.4-1.8-1.5-1.8c-1.4,0-1.9,1.2-1.9,2.5v3.1h-0.6V378.1z"/>
		<path d="M437.4,382.5v-5.4h-1v-0.6h1v-0.9c0-1,0.3-2.1,1.6-2.1c0.2,0,0.4,0,0.6,0.1v0.6c-0.2,0-0.5-0.1-0.6-0.1
			c-0.7,0-1,0.5-1,1.5v0.8h1.3v0.6H438v5.4H437.4z"/>
		<path d="M440.4,379.6c0,1.5,0.8,2.5,1.9,2.5c1.1,0,1.5-0.6,1.7-1.1h0.6c-0.3,0.8-0.9,1.7-2.4,1.7c-1.8,0-2.5-1.6-2.5-3.1
			c0-1.7,0.9-3.2,2.6-3.2c1.8,0,2.4,1.6,2.4,2.7c0,0.2,0,0.3,0,0.5H440.4z M444.2,379.1c0-1.2-0.7-2.1-1.8-2.1
			c-1.2,0-1.8,0.9-1.9,2.1H444.2z"/>
		<path d="M450.7,380.8c-0.3,1.1-1,1.9-2.3,1.9c-1.5,0-2.6-1.1-2.6-3.1c0-1.6,0.9-3.2,2.6-3.2c1.5,0,2.1,1.1,2.3,1.9h-0.6
			c-0.2-0.7-0.6-1.4-1.7-1.4c-1.3,0-2,1.1-2,2.6c0,1.4,0.7,2.6,1.9,2.6c0.9,0,1.4-0.4,1.7-1.3H450.7z"/>
		<path d="M451.2,376.6h1.1v-1.9h0.6v1.9h1.4v0.6h-1.4v3.9c0,0.7,0.1,1.1,0.7,1.1c0.2,0,0.4,0,0.6-0.1v0.5c-0.2,0.1-0.5,0.1-0.7,0.1
			c-0.8,0-1.2-0.4-1.2-1.3v-4.2h-1.1V376.6z"/>
		<path d="M455.7,379.6c0,1.5,0.8,2.5,1.9,2.5c1.1,0,1.5-0.6,1.7-1.1h0.6c-0.3,0.8-0.9,1.7-2.4,1.7c-1.8,0-2.5-1.6-2.5-3.1
			c0-1.7,0.9-3.2,2.6-3.2c1.8,0,2.4,1.6,2.4,2.7c0,0.2,0,0.3,0,0.5H455.7z M459.5,379.1c0-1.2-0.7-2.1-1.8-2.1
			c-1.2,0-1.8,0.9-1.9,2.1H459.5z"/>
		<path d="M466.2,373.7v7.1c0,0.6,0,1.1,0,1.7h-0.6c0-0.1,0-0.7,0-1c-0.3,0.7-1,1.2-2,1.2c-1.6,0-2.5-1.3-2.5-3.1
			c0-1.8,1-3.2,2.7-3.2c1.2,0,1.7,0.5,1.9,0.9v-3.6H466.2z M461.7,379.6c0,1.6,0.9,2.5,1.9,2.5c1.6,0,2-1.1,2-2.7
			c0-1.5-0.4-2.4-1.9-2.4C462.5,377,461.7,377.9,461.7,379.6z"/>
	</g>
</g>
<g>
	<g>
		<path class="st14" d="M88,53.3v6.1c0,0.7,0.2,1.6,1.1,1.6c0.9,0,1.1-0.7,1.1-1.6v-6.1h1.6v6.1c0,1.6-0.6,2.9-2.7,2.9
			c-2.1,0-2.7-1.2-2.7-2.9v-6.1H88z"/>
		<path class="st14" d="M93.2,57.4c0-1.4,0-1.7,0-2.1h1.5c0,0.2,0,0.4,0,0.7c0.2-0.4,0.6-0.8,1.5-0.8c1.1,0,1.7,0.7,1.7,2.1v4.8
			h-1.6v-4.4c0-0.7-0.1-1.1-0.8-1.1c-0.6,0-0.9,0.3-0.9,1.4v4.2h-1.6V57.4z"/>
		<path class="st14" d="M99.3,55.4h1.6v6.7h-1.6V55.4z M99.4,52.8h1.6v1.5h-1.6V52.8z"/>
		<path class="st14" d="M102.3,57.4c0-1.4,0-1.7,0-2.1h1.5c0,0.2,0,0.4,0,0.7c0.2-0.4,0.6-0.8,1.5-0.8c1.1,0,1.7,0.7,1.7,2.1v4.8
			h-1.6v-4.4c0-0.7-0.1-1.1-0.8-1.1c-0.6,0-0.9,0.3-0.9,1.4v4.2h-1.6V57.4z"/>
		<path class="st14" d="M108.5,62.1v-5.5h-0.8v-1.3h0.8v-0.7c0-1.1,0.5-1.9,1.8-1.9c0.2,0,0.5,0,0.6,0.1v1.3c-0.1,0-0.2,0-0.4,0
			c-0.4,0-0.6,0.3-0.6,0.7v0.5h1v1.3h-1v5.5H108.5z"/>
		<path class="st14" d="M112.8,59.1c0,0.9,0.1,1.8,1,1.8c0.8,0,0.9-0.7,0.9-0.9h1.5c0,0.2-0.2,2.2-2.4,2.2c-2.2,0-2.5-1.8-2.5-3.5
			c0-2.1,0.8-3.4,2.5-3.4c2,0,2.4,1.5,2.4,3.2c0,0.2,0,0.6,0,0.7H112.8z M114.7,58c0-0.7-0.1-1.5-0.9-1.5c-0.9,0-0.9,1-0.9,1.5
			H114.7z"/>
		<path class="st14" d="M121.8,59.8c0,0.5-0.1,2.4-2.4,2.4c-1.9,0-2.4-1.5-2.4-3.5c0-1.8,0.6-3.4,2.5-3.4c2.2,0,2.3,1.9,2.3,2.3
			h-1.6c0-0.3,0-1-0.7-1c-0.7,0-0.9,0.8-0.9,2.2c0,1.4,0.2,2.2,0.9,2.2c0.7,0,0.8-0.7,0.8-1.1H121.8z"/>
		<path class="st14" d="M122,55.4h0.9v-1.7h1.6v1.7h1v1.3h-1v3.7c0,0.4,0.1,0.6,0.6,0.6c0.2,0,0.3,0,0.4,0V62
			c-0.3,0.1-0.7,0.1-0.9,0.1c-1.1,0-1.5-0.4-1.5-1.6v-3.9H122V55.4z"/>
		<path class="st14" d="M127.5,59.1c0,0.9,0.1,1.8,1,1.8c0.8,0,0.9-0.7,0.9-0.9h1.5c0,0.2-0.2,2.2-2.4,2.2c-2.2,0-2.5-1.8-2.5-3.5
			c0-2.1,0.8-3.4,2.5-3.4c2,0,2.4,1.5,2.4,3.2c0,0.2,0,0.6,0,0.7H127.5z M129.4,58c0-0.7-0.1-1.5-0.9-1.5c-0.9,0-0.9,1-0.9,1.5
			H129.4z"/>
		<path class="st14" d="M136.7,52.8v7.4c0,0.8,0,1.5,0,1.9h-1.5c0-0.2,0-0.5,0-0.7c-0.2,0.5-0.6,0.8-1.5,0.8c-1.4,0-2-1.3-2-3.5
			c0-2.1,0.7-3.4,2.2-3.4c0.7,0,1.1,0.3,1.2,0.5v-2.9H136.7z M133.2,58.7c0,1.6,0.3,2.2,0.9,2.2c0.8,0,1-0.6,1-2.3
			c0-1.6-0.1-2.1-0.9-2.1C133.6,56.6,133.2,57,133.2,58.7z"/>
		<path class="st14" d="M145.7,59.5c0,0.4-0.2,2.7-2.6,2.7c-2.5,0-2.8-2.2-2.8-4.6c0-2.8,0.8-4.5,2.9-4.5c2.3,0,2.5,2,2.5,2.7h-1.6
			c0-0.3,0-1.4-1-1.4c-1,0-1.2,1.2-1.2,3.2c0,1.7,0.2,3.2,1.2,3.2c0.9,0,1-1.1,1.1-1.4H145.7z"/>
		<path class="st14" d="M151.4,58.7c0,2.4-0.9,3.5-2.5,3.5c-1.6,0-2.5-1.1-2.5-3.5c0-2.4,1-3.5,2.6-3.5
			C150.5,55.2,151.4,56.4,151.4,58.7z M147.9,58.7c0,1.4,0.2,2.2,1,2.2c0.7,0,0.9-0.8,0.9-2.2c0-1.5-0.2-2.2-0.9-2.2
			C148.2,56.5,147.9,57.2,147.9,58.7z"/>
		<path class="st14" d="M152.5,62.1v-9.2h1.6v9.2H152.5z"/>
		<path class="st14" d="M160.1,58.7c0,2.4-0.9,3.5-2.5,3.5c-1.6,0-2.5-1.1-2.5-3.5c0-2.4,1-3.5,2.6-3.5
			C159.3,55.2,160.1,56.4,160.1,58.7z M156.6,58.7c0,1.4,0.2,2.2,1,2.2c0.7,0,0.9-0.8,0.9-2.2c0-1.5-0.2-2.2-0.9-2.2
			C156.9,56.5,156.6,57.2,156.6,58.7z"/>
		<path class="st14" d="M161.2,57.4c0-1.4,0-1.7,0-2.1h1.5c0,0.2,0,0.4,0,0.7c0.2-0.4,0.6-0.8,1.5-0.8c1.1,0,1.7,0.7,1.7,2.1v4.8
			h-1.6v-4.4c0-0.7-0.1-1.1-0.8-1.1c-0.6,0-0.9,0.3-0.9,1.4v4.2h-1.6V57.4z"/>
		<path class="st14" d="M167.3,55.4h1.6v6.7h-1.6V55.4z M167.3,52.8h1.6v1.5h-1.6V52.8z"/>
		<path class="st14" d="M171.5,59.1c0,0.9,0.1,1.8,1,1.8c0.8,0,0.9-0.7,0.9-0.9h1.5c0,0.2-0.2,2.2-2.4,2.2c-2.2,0-2.5-1.8-2.5-3.5
			c0-2.1,0.8-3.4,2.5-3.4c2,0,2.4,1.5,2.4,3.2c0,0.2,0,0.6,0,0.7H171.5z M173.4,58c0-0.7-0.1-1.5-0.9-1.5c-0.9,0-0.9,1-0.9,1.5
			H173.4z"/>
		<path class="st14" d="M177,60c0,0.5,0.2,1,0.9,1c0.5,0,0.8-0.3,0.8-0.7c0-0.5-0.2-0.7-1-1c-1.6-0.6-2-1.1-2-2.1
			c0-0.9,0.6-1.9,2.2-1.9c1.8,0,2.2,1.2,2.2,2.1h-1.5c0-0.2,0-0.9-0.7-0.9c-0.4,0-0.6,0.3-0.6,0.6c0,0.4,0.2,0.6,1,0.9
			c1.4,0.5,2,1.1,2,2.2c0,1.3-0.8,2.1-2.4,2.1c-1.6,0-2.3-1-2.3-2.2H177z"/>
	</g>
</g>
<g>
	<g>
		<path class="st15" d="M220.2,53.3v8.8h-1.6v-8.8H220.2z"/>
		<path class="st15" d="M221.6,57.4c0-1.4,0-1.7,0-2.1h1.5c0,0.2,0,0.4,0,0.7c0.2-0.4,0.6-0.8,1.5-0.8c1.1,0,1.7,0.7,1.7,2.1v4.8
			h-1.6v-4.4c0-0.7-0.1-1.1-0.8-1.1c-0.6,0-0.9,0.3-0.9,1.4v4.2h-1.6V57.4z"/>
		<path class="st15" d="M227.9,62.1v-5.5h-0.8v-1.3h0.8v-0.7c0-1.1,0.5-1.9,1.8-1.9c0.2,0,0.5,0,0.6,0.1v1.3c-0.1,0-0.2,0-0.4,0
			c-0.4,0-0.6,0.3-0.6,0.7v0.5h1v1.3h-1v5.5H227.9z"/>
		<path class="st15" d="M232.2,59.1c0,0.9,0.1,1.8,1,1.8c0.8,0,0.9-0.7,0.9-0.9h1.5c0,0.2-0.2,2.2-2.4,2.2c-2.2,0-2.5-1.8-2.5-3.5
			c0-2.1,0.8-3.4,2.5-3.4c2,0,2.4,1.5,2.4,3.2c0,0.2,0,0.6,0,0.7H232.2z M234.1,58c0-0.7-0.1-1.5-0.9-1.5c-0.9,0-0.9,1-0.9,1.5
			H234.1z"/>
		<path class="st15" d="M241.1,59.8c0,0.5-0.1,2.4-2.4,2.4c-1.9,0-2.4-1.5-2.4-3.5c0-1.8,0.6-3.4,2.5-3.4c2.2,0,2.3,1.9,2.3,2.3
			h-1.6c0-0.3,0-1-0.7-1c-0.7,0-0.9,0.8-0.9,2.2c0,1.4,0.2,2.2,0.9,2.2c0.7,0,0.8-0.7,0.8-1.1H241.1z"/>
		<path class="st15" d="M241.4,55.4h0.9v-1.7h1.6v1.7h1v1.3h-1v3.7c0,0.4,0.1,0.6,0.6,0.6c0.2,0,0.3,0,0.4,0V62
			c-0.3,0.1-0.7,0.1-0.9,0.1c-1.1,0-1.5-0.4-1.5-1.6v-3.9h-0.9V55.4z"/>
		<path class="st15" d="M246.9,59.1c0,0.9,0.1,1.8,1,1.8c0.8,0,0.9-0.7,0.9-0.9h1.5c0,0.2-0.2,2.2-2.4,2.2c-2.2,0-2.5-1.8-2.5-3.5
			c0-2.1,0.8-3.4,2.5-3.4c2,0,2.4,1.5,2.4,3.2c0,0.2,0,0.6,0,0.7H246.9z M248.8,58c0-0.7-0.1-1.5-0.9-1.5c-0.9,0-0.9,1-0.9,1.5
			H248.8z"/>
		<path class="st15" d="M256,52.8v7.4c0,0.8,0,1.5,0,1.9h-1.5c0-0.2,0-0.5,0-0.7c-0.2,0.5-0.6,0.8-1.5,0.8c-1.4,0-2-1.3-2-3.5
			c0-2.1,0.7-3.4,2.2-3.4c0.7,0,1.1,0.3,1.2,0.5v-2.9H256z M252.6,58.7c0,1.6,0.3,2.2,0.9,2.2c0.8,0,1-0.6,1-2.3
			c0-1.6-0.1-2.1-0.9-2.1C253,56.6,252.6,57,252.6,58.7z"/>
		<path class="st15" d="M265,59.5c0,0.4-0.2,2.7-2.6,2.7c-2.5,0-2.8-2.2-2.8-4.6c0-2.8,0.8-4.5,2.9-4.5c2.3,0,2.5,2,2.5,2.7h-1.6
			c0-0.3,0-1.4-1-1.4c-1,0-1.2,1.2-1.2,3.2c0,1.7,0.2,3.2,1.2,3.2c0.9,0,1-1.1,1.1-1.4H265z"/>
		<path class="st15" d="M270.8,58.7c0,2.4-0.9,3.5-2.5,3.5c-1.6,0-2.5-1.1-2.5-3.5c0-2.4,1-3.5,2.6-3.5
			C269.9,55.2,270.8,56.4,270.8,58.7z M267.3,58.7c0,1.4,0.2,2.2,1,2.2c0.7,0,0.9-0.8,0.9-2.2c0-1.5-0.2-2.2-0.9-2.2
			C267.6,56.5,267.3,57.2,267.3,58.7z"/>
		<path class="st15" d="M271.8,62.1v-9.2h1.6v9.2H271.8z"/>
		<path class="st15" d="M279.5,58.7c0,2.4-0.9,3.5-2.5,3.5c-1.6,0-2.5-1.1-2.5-3.5c0-2.4,1-3.5,2.6-3.5
			C278.7,55.2,279.5,56.4,279.5,58.7z M276,58.7c0,1.4,0.2,2.2,1,2.2c0.7,0,0.9-0.8,0.9-2.2c0-1.5-0.2-2.2-0.9-2.2
			C276.3,56.5,276,57.2,276,58.7z"/>
		<path class="st15" d="M280.6,57.4c0-1.4,0-1.7,0-2.1h1.5c0,0.2,0,0.4,0,0.7c0.2-0.4,0.6-0.8,1.5-0.8c1.1,0,1.7,0.7,1.7,2.1v4.8
			h-1.6v-4.4c0-0.7-0.1-1.1-0.8-1.1c-0.6,0-0.9,0.3-0.9,1.4v4.2h-1.6V57.4z"/>
		<path class="st15" d="M286.7,55.4h1.6v6.7h-1.6V55.4z M286.7,52.8h1.6v1.5h-1.6V52.8z"/>
		<path class="st15" d="M290.9,59.1c0,0.9,0.1,1.8,1,1.8c0.8,0,0.9-0.7,0.9-0.9h1.5c0,0.2-0.2,2.2-2.4,2.2c-2.2,0-2.5-1.8-2.5-3.5
			c0-2.1,0.8-3.4,2.5-3.4c2,0,2.4,1.5,2.4,3.2c0,0.2,0,0.6,0,0.7H290.9z M292.7,58c0-0.7-0.1-1.5-0.9-1.5c-0.9,0-0.9,1-0.9,1.5
			H292.7z"/>
		<path class="st15" d="M296.4,60c0,0.5,0.2,1,0.9,1c0.5,0,0.8-0.3,0.8-0.7c0-0.5-0.2-0.7-1-1c-1.6-0.6-2-1.1-2-2.1
			c0-0.9,0.6-1.9,2.2-1.9c1.8,0,2.2,1.2,2.2,2.1h-1.5c0-0.2,0-0.9-0.7-0.9c-0.4,0-0.6,0.3-0.6,0.6c0,0.4,0.2,0.6,1,0.9
			c1.4,0.5,2,1.1,2,2.2c0,1.3-0.8,2.1-2.4,2.1c-1.6,0-2.3-1-2.3-2.2H296.4z"/>
	</g>
</g>
<g>
	<g>
		<path class="st16" d="M377.3,58.8c0-1.5,0-3.2,0.1-4.2h0c-0.3,1.7-0.8,4.6-1.4,7.5h-1.4c-0.4-2.7-0.9-5.8-1.2-7.5h0
			c0.1,1,0.1,2.9,0.1,4.4v3.1h-1.4v-8.8h2.4c0.5,2.4,0.9,4.9,1,6.2h0c0.2-1.2,0.7-3.8,1.2-6.2h2.3v8.8h-1.5V58.8z"/>
		<path class="st16" d="M380.3,55.4h1.6v6.7h-1.6V55.4z M380.3,52.8h1.6v1.5h-1.6V52.8z"/>
		<path class="st16" d="M384.1,55.4c0.5,1.1,0.8,1.7,0.9,2.1h0c0.2-0.5,0.5-1.2,0.9-2.1h1.6l-1.7,3.2l1.7,3.6h-1.7
			c-0.5-1.2-0.8-1.8-0.9-2.2h0c-0.1,0.4-0.5,1.3-1,2.2h-1.7l1.7-3.3l-1.7-3.4H384.1z"/>
		<path class="st16" d="M389.4,59.1c0,0.9,0.1,1.8,1,1.8c0.8,0,0.9-0.7,0.9-0.9h1.5c0,0.2-0.2,2.2-2.4,2.2c-2.2,0-2.5-1.8-2.5-3.5
			c0-2.1,0.8-3.4,2.5-3.4c2,0,2.4,1.5,2.4,3.2c0,0.2,0,0.6,0,0.7H389.4z M391.3,58c0-0.7-0.1-1.5-0.9-1.5c-0.9,0-0.9,1-0.9,1.5
			H391.3z"/>
		<path class="st16" d="M398.5,52.8v7.4c0,0.8,0,1.5,0,1.9H397c0-0.2,0-0.5,0-0.7c-0.2,0.5-0.6,0.8-1.5,0.8c-1.4,0-2-1.3-2-3.5
			c0-2.1,0.7-3.4,2.2-3.4c0.7,0,1.1,0.3,1.2,0.5v-2.9H398.5z M395.1,58.7c0,1.6,0.3,2.2,0.9,2.2c0.8,0,1-0.6,1-2.3
			c0-1.6-0.1-2.1-0.9-2.1C395.5,56.6,395.1,57,395.1,58.7z"/>
		<path class="st16" d="M407.5,59.5c0,0.4-0.2,2.7-2.6,2.7c-2.5,0-2.8-2.2-2.8-4.6c0-2.8,0.8-4.5,2.9-4.5c2.3,0,2.5,2,2.5,2.7H406
			c0-0.3,0-1.4-1-1.4c-1,0-1.2,1.2-1.2,3.2c0,1.7,0.2,3.2,1.2,3.2c0.9,0,1-1.1,1.1-1.4H407.5z"/>
		<path class="st16" d="M413.3,58.7c0,2.4-0.9,3.5-2.5,3.5c-1.6,0-2.5-1.1-2.5-3.5c0-2.4,1-3.5,2.6-3.5
			C412.4,55.2,413.3,56.4,413.3,58.7z M409.8,58.7c0,1.4,0.2,2.2,1,2.2c0.7,0,0.9-0.8,0.9-2.2c0-1.5-0.2-2.2-0.9-2.2
			C410.1,56.5,409.8,57.2,409.8,58.7z"/>
		<path class="st16" d="M414.3,62.1v-9.2h1.6v9.2H414.3z"/>
		<path class="st16" d="M422,58.7c0,2.4-0.9,3.5-2.5,3.5c-1.6,0-2.5-1.1-2.5-3.5c0-2.4,1-3.5,2.6-3.5C421.1,55.2,422,56.4,422,58.7z
			 M418.5,58.7c0,1.4,0.2,2.2,1,2.2c0.7,0,0.9-0.8,0.9-2.2c0-1.5-0.2-2.2-0.9-2.2C418.8,56.5,418.5,57.2,418.5,58.7z"/>
		<path class="st16" d="M423.1,57.4c0-1.4,0-1.7,0-2.1h1.5c0,0.2,0,0.4,0,0.7c0.2-0.4,0.6-0.8,1.5-0.8c1.1,0,1.7,0.7,1.7,2.1v4.8
			h-1.6v-4.4c0-0.7-0.1-1.1-0.8-1.1c-0.6,0-0.9,0.3-0.9,1.4v4.2h-1.6V57.4z"/>
		<path class="st16" d="M429.2,55.4h1.6v6.7h-1.6V55.4z M429.2,52.8h1.6v1.5h-1.6V52.8z"/>
		<path class="st16" d="M433.3,59.1c0,0.9,0.1,1.8,1,1.8c0.8,0,0.9-0.7,0.9-0.9h1.5c0,0.2-0.2,2.2-2.4,2.2c-2.2,0-2.5-1.8-2.5-3.5
			c0-2.1,0.8-3.4,2.5-3.4c2,0,2.4,1.5,2.4,3.2c0,0.2,0,0.6,0,0.7H433.3z M435.2,58c0-0.7-0.1-1.5-0.9-1.5c-0.9,0-0.9,1-0.9,1.5
			H435.2z"/>
		<path class="st16" d="M438.9,60c0,0.5,0.2,1,0.9,1c0.5,0,0.8-0.3,0.8-0.7c0-0.5-0.2-0.7-1-1c-1.6-0.6-2-1.1-2-2.1
			c0-0.9,0.6-1.9,2.2-1.9c1.8,0,2.2,1.2,2.2,2.1h-1.5c0-0.2,0-0.9-0.7-0.9c-0.4,0-0.6,0.3-0.6,0.6c0,0.4,0.2,0.6,1,0.9
			c1.4,0.5,2,1.1,2,2.2c0,1.3-0.8,2.1-2.4,2.1c-1.6,0-2.3-1-2.3-2.2H438.9z"/>
	</g>
</g>
<g>
	<g>
		<path d="M232.1,391.8v8.3h-1.8v-8.3H232.1z"/>
		<path d="M233.9,395.5c0-0.5,0-1.1,0-1.6h1.7c0,0.2,0.1,0.6,0.1,0.8c0.2-0.4,0.7-0.9,1.8-0.9c1.2,0,2.1,0.8,2.1,2.4v3.9h-1.7v-3.8
			c0-0.7-0.2-1.2-1-1.2c-0.7,0-1.1,0.4-1.1,1.5v3.5h-1.7V395.5z"/>
		<path d="M246.7,391.4v7c0,0.6,0,1.1,0,1.7h-1.7c0-0.2-0.1-0.5-0.1-0.6c-0.3,0.5-0.8,0.8-1.8,0.8c-1.6,0-2.6-1.3-2.6-3.2
			c0-1.9,1.1-3.3,2.8-3.3c0.9,0,1.4,0.3,1.5,0.6v-3H246.7z M242.4,397c0,1.2,0.5,1.9,1.3,1.9c1.2,0,1.3-1,1.3-1.9
			c0-1.1-0.1-1.9-1.3-1.9C242.9,395.1,242.4,395.8,242.4,397z"/>
		<path d="M248.2,391.4h1.7v1.5h-1.7V391.4z M248.2,393.9h1.7v6.2h-1.7V393.9z"/>
		<path d="M252.6,393.9c0.6,2.1,1.1,3.9,1.2,4.7h0c0.2-1,0.8-2.9,1.3-4.7h1.7l-2.2,6.2h-1.8l-2.1-6.2H252.6z"/>
		<path d="M257.7,391.4h1.7v1.5h-1.7V391.4z M257.7,393.9h1.7v6.2h-1.7V393.9z"/>
		<path d="M266.7,391.4v7c0,0.6,0,1.1,0,1.7h-1.7c0-0.2-0.1-0.5-0.1-0.6c-0.3,0.5-0.8,0.8-1.8,0.8c-1.6,0-2.6-1.3-2.6-3.2
			c0-1.9,1.1-3.3,2.8-3.3c0.9,0,1.4,0.3,1.5,0.6v-3H266.7z M262.4,397c0,1.2,0.5,1.9,1.3,1.9c1.2,0,1.3-1,1.3-1.9
			c0-1.1-0.2-1.9-1.3-1.9C262.9,395.1,262.4,395.8,262.4,397z"/>
		<path d="M273.7,398.3c0,0.6,0,1.2,0,1.8H272c0-0.2,0-0.5,0-0.7c-0.4,0.6-0.9,0.9-1.7,0.9c-1.3,0-2.1-0.8-2.1-2.3v-4h1.7v3.7
			c0,0.7,0.2,1.3,1,1.3c0.8,0,1.1-0.4,1.1-1.6v-3.3h1.7V398.3z"/>
		<path d="M280.4,398.5c0,0.6,0,1.5,0.1,1.6h-1.6c0-0.1-0.1-0.5-0.1-0.6c-0.2,0.3-0.6,0.8-1.7,0.8c-1.5,0-2.1-1-2.1-1.9
			c0-1.4,1.1-2.1,3-2.1c0.3,0,0.7,0,0.9,0v-0.4c0-0.4-0.2-0.9-1-0.9c-0.7,0-0.9,0.3-1,0.8h-1.6c0.1-1.1,0.8-2,2.7-2
			c1.7,0,2.6,0.7,2.6,2.1V398.5z M278.7,397.3c-0.1,0-0.5,0-0.7,0c-1,0-1.4,0.3-1.4,0.9c0,0.4,0.3,0.8,0.9,0.8
			c1.1,0,1.2-0.8,1.2-1.6V397.3z"/>
		<path d="M282,400.1v-8.8h1.7v8.8H282z"/>
		<path d="M290.1,391.8v8.3h-1.8v-8.3H290.1z"/>
		<path d="M291.9,395.5c0-0.5,0-1.1,0-1.6h1.7c0,0.2,0.1,0.6,0.1,0.8c0.2-0.4,0.7-0.9,1.8-0.9c1.2,0,2.1,0.8,2.1,2.4v3.9h-1.7v-3.8
			c0-0.7-0.2-1.2-1-1.2c-0.7,0-1.1,0.4-1.1,1.5v3.5h-1.7V395.5z"/>
		<path d="M299.2,400.1v-4.9h-0.9v-1.3h0.9v-0.5c0-1.3,0.6-2.1,2-2.1c0.3,0,0.6,0,0.8,0.1v1.4c-0.1,0-0.2,0-0.4,0
			c-0.5,0-0.7,0.2-0.7,0.8v0.4h1.1v1.3H301v4.9H299.2z"/>
		<path d="M304.3,397.4c0,0.8,0.4,1.5,1.2,1.5c0.7,0,0.9-0.3,1.1-0.7h1.7c-0.2,0.8-0.9,2-2.8,2c-2,0-2.9-1.5-2.9-3.2
			c0-1.9,1-3.3,3-3.3c2.1,0,2.9,1.5,2.9,3.1c0,0.2,0,0.3,0,0.5H304.3z M306.7,396.3c0-0.7-0.3-1.3-1.1-1.3c-0.8,0-1.2,0.6-1.2,1.3
			H306.7z"/>
		<path d="M315,398.1c-0.2,1-0.9,2.1-2.8,2.1c-1.9,0-2.9-1.3-2.9-3.2c0-1.8,1.1-3.3,3-3.3c2.1,0,2.7,1.5,2.7,2.2h-1.7
			c-0.1-0.5-0.4-0.9-1.1-0.9c-0.8,0-1.2,0.7-1.2,1.9c0,1.3,0.5,1.9,1.2,1.9c0.6,0,0.9-0.3,1.1-0.8H315z"/>
		<path d="M315.5,393.9h1v-1.7h1.7v1.7h1.2v1.3h-1.2v3.1c0,0.5,0.1,0.7,0.7,0.7c0.1,0,0.3,0,0.4,0v1.2c-0.3,0.1-0.8,0.1-1.2,0.1
			c-1.2,0-1.6-0.6-1.6-1.7v-3.3h-1V393.9z"/>
		<path d="M320.4,391.4h1.7v1.5h-1.7V391.4z M320.4,393.9h1.7v6.2h-1.7V393.9z"/>
		<path d="M329.5,397c0,1.9-1.1,3.3-3.1,3.3c-1.9,0-3-1.4-3-3.2c0-1.9,1.2-3.3,3.1-3.3C328.3,393.8,329.5,395.1,329.5,397z
			 M325.1,397c0,1.2,0.5,1.9,1.3,1.9c0.8,0,1.3-0.7,1.3-1.9c0-1.3-0.5-1.9-1.3-1.9C325.6,395.1,325.1,395.7,325.1,397z"/>
		<path d="M330.7,395.5c0-0.5,0-1.1,0-1.6h1.7c0,0.2,0.1,0.6,0.1,0.8c0.2-0.4,0.7-0.9,1.8-0.9c1.2,0,2.1,0.8,2.1,2.4v3.9h-1.7v-3.8
			c0-0.7-0.2-1.2-1-1.2c-0.7,0-1.1,0.4-1.1,1.5v3.5h-1.7V395.5z"/>
		<path d="M342.1,397.7c0.2,0.8,0.8,1.2,1.7,1.2c1,0,1.4-0.4,1.4-1c0-0.7-0.4-1-1.8-1.3c-2.2-0.5-2.8-1.3-2.8-2.5
			c0-1.4,1.1-2.4,3-2.4c2.2,0,3.1,1.2,3.2,2.4H345c-0.1-0.5-0.4-1.1-1.4-1.1c-0.7,0-1.2,0.3-1.2,0.9c0,0.6,0.4,0.8,1.7,1.1
			c2.4,0.6,2.9,1.5,2.9,2.6c0,1.5-1.1,2.5-3.3,2.5c-2.1,0-3.2-1-3.4-2.5H342.1z"/>
		<path d="M347.7,393.9h1v-1.7h1.7v1.7h1.2v1.3h-1.2v3.1c0,0.5,0.1,0.7,0.7,0.7c0.1,0,0.3,0,0.4,0v1.2c-0.3,0.1-0.8,0.1-1.2,0.1
			c-1.2,0-1.6-0.6-1.6-1.7v-3.3h-1V393.9z"/>
		<path d="M357.8,398.5c0,0.6,0,1.5,0.1,1.6h-1.6c0-0.1-0.1-0.5-0.1-0.6c-0.2,0.3-0.6,0.8-1.7,0.8c-1.5,0-2.1-1-2.1-1.9
			c0-1.4,1.1-2.1,3-2.1c0.3,0,0.7,0,0.9,0v-0.4c0-0.4-0.2-0.9-1-0.9c-0.7,0-0.9,0.3-1,0.8h-1.6c0.1-1.1,0.8-2,2.7-2
			c1.7,0,2.6,0.7,2.6,2.1V398.5z M356.1,397.3c-0.1,0-0.5,0-0.7,0c-1,0-1.4,0.3-1.4,0.9c0,0.4,0.3,0.8,0.9,0.8
			c1.1,0,1.2-0.8,1.2-1.6V397.3z"/>
		<path d="M358.8,393.9h1v-1.7h1.7v1.7h1.2v1.3h-1.2v3.1c0,0.5,0.1,0.7,0.7,0.7c0.1,0,0.3,0,0.4,0v1.2c-0.3,0.1-0.8,0.1-1.2,0.1
			c-1.2,0-1.6-0.6-1.6-1.7v-3.3h-1V393.9z"/>
		<path d="M369.2,398.3c0,0.6,0,1.2,0,1.8h-1.7c0-0.2,0-0.5,0-0.7c-0.4,0.6-0.9,0.9-1.7,0.9c-1.3,0-2.1-0.8-2.1-2.3v-4h1.7v3.7
			c0,0.7,0.2,1.3,1,1.3c0.8,0,1.1-0.4,1.1-1.6v-3.3h1.7V398.3z"/>
		<path d="M372,398.2c0.1,0.5,0.5,0.8,1.2,0.8c0.6,0,0.9-0.2,0.9-0.6c0-0.4-0.3-0.6-1.2-0.8c-2-0.5-2.4-1.1-2.4-2
			c0-0.9,0.6-1.9,2.5-1.9c1.9,0,2.5,1,2.6,1.9H374c-0.1-0.2-0.2-0.7-1-0.7c-0.6,0-0.8,0.3-0.8,0.5c0,0.3,0.2,0.5,1.2,0.7
			c2.1,0.5,2.4,1.2,2.4,2.1c0,1-0.8,2-2.7,2c-1.9,0-2.7-0.9-2.8-2H372z"/>
	</g>
</g>
<g>
	<line class="st17" x1="122.5" y1="87.1" x2="122.5" y2="76.5"/>
	<line class="st18" x1="123" y1="76.5" x2="256" y2="76.5"/>
	<line class="st18" x1="123.5" y1="84.9" x2="123.5" y2="76.5"/>
	<line class="st18" x1="256" y1="84.9" x2="256" y2="76.5"/>
</g>
<g>
	<line class="st17" x1="254.5" y1="112.7" x2="254.5" y2="102"/>
	<line class="st18" x1="255" y1="102" x2="406.9" y2="102"/>
	<line class="st18" x1="255.5" y1="110.4" x2="255.5" y2="102"/>
	<line class="st18" x1="406.9" y1="110.4" x2="406.9" y2="102"/>
</g>
<g>
	<line class="st17" x1="362.6" y1="140.9" x2="362.6" y2="130.2"/>
	<line class="st18" x1="369.2" y1="131.3" x2="447.9" y2="131.3"/>
	<line class="st18" x1="369.2" y1="139.7" x2="369.2" y2="131.3"/>
	<line class="st18" x1="447.9" y1="139.7" x2="447.9" y2="131.3"/>
</g>
<g>
	<g>
		<path d="M182.5,70.1l-0.1,1.8l1.4-1.1l0.4,0.6l-1.7,0.8l1.6,0.8l-0.3,0.6l-1.4-1.1l0.2,1.8h-0.7l0.1-1.8l-1.4,1.1l-0.3-0.6
			l1.6-0.8l-1.7-0.8l0.3-0.6l1.4,1l-0.1-1.8H182.5z"/>
		<path d="M187,70.1l-0.1,1.8l1.4-1.1l0.4,0.6l-1.7,0.8l1.6,0.8l-0.3,0.6l-1.4-1.1l0.2,1.8h-0.7l0.1-1.8l-1.4,1.1l-0.3-0.6l1.6-0.8
			l-1.7-0.8l0.3-0.6l1.4,1l-0.1-1.8H187z"/>
		<path d="M191.5,70.1l-0.1,1.8l1.4-1.1l0.4,0.6l-1.7,0.8l1.6,0.8l-0.3,0.6l-1.4-1.1l0.2,1.8h-0.7l0.1-1.8l-1.4,1.1l-0.3-0.6
			l1.6-0.8l-1.7-0.8l0.3-0.6l1.4,1l-0.1-1.8H191.5z"/>
	</g>
</g>
<g>
	<g>
		<path d="M331.6,94.8c0-0.4,0-0.7,0-1h0.4c0,0.1,0,0.6,0,0.8c0.2-0.4,0.5-0.9,1.3-0.9c0.7,0,1.3,0.4,1.3,1.5v2.6h-0.4v-2.5
			c0-0.7-0.3-1.2-1-1.2c-1,0-1.3,0.8-1.3,1.7v2h-0.4V94.8z"/>
		<path d="M335.8,97.8v-1h0.4v1H335.8z"/>
		<path d="M337.4,96.7c0.1,0.5,0.5,0.8,1.1,0.8c0.7,0,1-0.3,1-0.8c0-0.5-0.2-0.7-1.1-0.9c-1-0.2-1.3-0.6-1.3-1.1
			c0-0.6,0.4-1.1,1.3-1.1c0.9,0,1.3,0.6,1.4,1.1h-0.4c-0.1-0.3-0.3-0.8-1-0.8c-0.7,0-0.9,0.3-0.9,0.7c0,0.4,0.2,0.6,1,0.7
			c1.1,0.3,1.4,0.6,1.4,1.2c0,0.7-0.6,1.2-1.4,1.2c-0.9,0-1.4-0.5-1.5-1.2H337.4z"/>
		<path d="M340.8,97.8v-1h0.4v1H340.8z"/>
	</g>
</g>
<g>
	<g>
		<path d="M404.6,123.3c0-0.4,0-0.7,0-1h0.4c0,0.1,0,0.6,0,0.8c0.2-0.4,0.5-0.9,1.3-0.9c0.7,0,1.3,0.4,1.3,1.5v2.6h-0.4v-2.5
			c0-0.7-0.3-1.2-1-1.2c-1,0-1.3,0.8-1.3,1.7v2h-0.4V123.3z"/>
		<path d="M408.8,126.3v-1h0.4v1H408.8z"/>
		<path d="M410.3,125.2c0.1,0.5,0.5,0.8,1.1,0.8c0.7,0,1-0.3,1-0.8c0-0.5-0.2-0.7-1.1-0.9c-1-0.2-1.3-0.6-1.3-1.1
			c0-0.6,0.4-1.1,1.3-1.1s1.3,0.6,1.4,1.1h-0.4c-0.1-0.3-0.3-0.8-1-0.8c-0.7,0-0.9,0.3-0.9,0.7c0,0.4,0.2,0.6,1,0.7
			c1.1,0.3,1.4,0.6,1.4,1.2c0,0.7-0.6,1.2-1.4,1.2c-0.9,0-1.4-0.5-1.5-1.2H410.3z"/>
		<path d="M413.7,126.3v-1h0.4v1H413.7z"/>
	</g>
</g>
</svg>
